<svg width="46" height="32" viewBox="0 0 46 32" fill="none" xmlns="http://www.w3.org/2000/svg">
<path d="M23 8.91001H14.46V17.43H23V8.91001ZM25.87 23.13V26H11.63V23.13H25.87ZM25.87 6.04001V20.26H11.63V6.00001L25.87 6.04001ZM40.07 23.13V26H28.68V23.13H40.07ZM40.07 17.43V20.26H28.68V17.43H40.07ZM40.07 11.74V14.61H28.68V11.74H40.07ZM40.07 6.04001V8.91001H28.68V6.00001L40.07 6.04001ZM5.93003 27.39V6.00001H3.06003V27.39C3.07711 27.7664 3.2343 28.1228 3.50074 28.3893C3.76718 28.6557 4.12361 28.8129 4.50003 28.83C4.68798 28.8292 4.87375 28.7897 5.04578 28.714C5.21782 28.6383 5.37244 28.528 5.50003 28.39C5.63718 28.2623 5.74625 28.1074 5.82028 27.9353C5.89431 27.7631 5.93169 27.5774 5.93003 27.39V27.39ZM42.93 27.39V3.21001H8.76003V27.39C8.7584 27.8798 8.67735 28.3661 8.52003 28.83H41.52C41.7078 28.828 41.8932 28.788 42.0651 28.7124C42.2369 28.6368 42.3917 28.5271 42.52 28.39C42.6517 28.2606 42.7539 28.1042 42.8195 27.9316C42.8851 27.759 42.9126 27.5742 42.9 27.39H42.93ZM45.79 0.390006V27.39C45.7981 27.9517 45.6934 28.5093 45.4822 29.0298C45.271 29.5503 44.9575 30.0231 44.5603 30.4203C44.1631 30.8175 43.6903 31.131 43.1698 31.3422C42.6493 31.5534 42.0917 31.6581 41.53 31.65H4.50003C3.94358 31.6529 3.39205 31.5457 2.87718 31.3346C2.36232 31.1235 1.89429 30.8127 1.50003 30.42C1.09183 30.0374 0.770715 29.5715 0.558486 29.0539C0.346256 28.5363 0.247877 27.979 0.270026 27.42V3.21001H5.93003V0.350006L45.79 0.390006Z" fill="#2A9CC8"/>
</svg>
