<svg width="38" height="42" viewBox="0 0 38 42" fill="none" xmlns="http://www.w3.org/2000/svg">
<path d="M3.16006 38.26H9.64006V31.78H3.16006V38.26ZM11.0901 38.26H18.2601V31.78H11.0901V38.26ZM3.16006 30.34H9.64006V23.17H3.16006V30.34ZM11.0901 30.34H18.2601V23.17H11.0901V30.34ZM3.16006 21.72H9.64006V15.25H3.16006V21.72ZM19.7001 38.26H26.9101V31.78H19.7001V38.26ZM11.0901 21.72H18.2601V15.25H11.0901V21.72ZM28.3201 38.26H34.7901V31.78H28.3201V38.26ZM19.7001 30.34H26.9101V23.17H19.7001V30.34ZM11.8201 10.94V4.46C11.817 4.37025 11.7939 4.28233 11.7523 4.20271C11.7108 4.1231 11.6519 4.05382 11.5801 4C11.4421 3.87612 11.2725 3.79303 11.0901 3.76H9.64006C9.54731 3.76219 9.4562 3.78484 9.37322 3.82633C9.29025 3.86782 9.21746 3.92712 9.16006 4C9.0413 4.13749 8.9588 4.30249 8.92006 4.48V10.96C8.92236 11.0585 8.94485 11.1554 8.98613 11.2449C9.02741 11.3343 9.08661 11.4143 9.16006 11.48C9.21676 11.551 9.29049 11.6066 9.3744 11.6416C9.45831 11.6765 9.54968 11.6898 9.64006 11.68H11.0901C11.1811 11.6823 11.2717 11.6657 11.356 11.6313C11.4403 11.5968 11.5166 11.5453 11.5801 11.48C11.7186 11.3321 11.8031 11.1419 11.8201 10.94ZM28.3201 30.34H34.7901V23.17H28.3201V30.34ZM19.7001 21.72H26.9101V15.25H19.7001V21.72ZM28.3201 21.72H34.7901V15.25H28.3201V21.72ZM29.0001 10.94V4.46C29.001 4.37061 28.9837 4.28198 28.9493 4.19947C28.9149 4.11696 28.8642 4.04229 28.8001 3.98C28.6612 3.8401 28.4766 3.7549 28.2801 3.74H26.9101C26.8103 3.74323 26.7121 3.76609 26.6212 3.80727C26.5302 3.84845 26.4483 3.90714 26.3801 3.98C26.311 4.03841 26.2569 4.1124 26.2221 4.19586C26.1874 4.27932 26.1729 4.36986 26.1801 4.46V10.94C26.1831 11.1315 26.254 11.3158 26.3801 11.46C26.4426 11.5374 26.5247 11.5968 26.6179 11.632C26.7111 11.6671 26.8119 11.6768 26.9101 11.66H28.3201C28.4159 11.6646 28.5116 11.6492 28.6011 11.6148C28.6907 11.5804 28.772 11.5276 28.8401 11.46C28.9593 11.3143 29.0168 11.1276 29.0001 10.94ZM37.6501 9.49V38.26C37.6502 38.6362 37.5721 39.0083 37.4206 39.3526C37.2691 39.6969 37.0475 40.006 36.7701 40.26C36.2402 40.7927 35.5214 41.0946 34.7701 41.1H3.16006C2.40409 41.0947 1.68072 40.7914 1.14709 40.2559C0.613464 39.7204 0.312672 38.996 0.310057 38.24V9.49C0.306565 9.11701 0.379266 8.74723 0.523705 8.40333C0.668145 8.05942 0.881282 7.74863 1.15006 7.49C1.40961 7.22173 1.72036 7.00827 2.0639 6.86227C2.40744 6.71626 2.77678 6.64068 3.15006 6.64H6.05006V4.46C6.03539 3.99238 6.11653 3.52671 6.2885 3.09161C6.46048 2.65652 6.71964 2.26121 7.05006 1.93C7.38162 1.60006 7.777 1.34121 8.212 1.16927C8.64701 0.997331 9.11251 0.915914 9.58006 0.929996H11.0301C11.5006 0.928676 11.9667 1.02037 12.4016 1.19982C12.8366 1.37926 13.2317 1.64291 13.5644 1.97561C13.8971 2.30831 14.1608 2.70349 14.3402 3.13843C14.5197 3.57337 14.6114 4.03949 14.6101 4.51V6.63H23.2301V4.46C23.2226 3.98614 23.315 3.51602 23.501 3.08015C23.6871 2.64429 23.9627 2.25242 24.3101 1.93C24.6465 1.60395 25.0442 1.34773 25.4801 1.1761C25.916 1.00447 26.3816 0.920826 26.8501 0.929996H28.2601C28.7333 0.917941 29.2043 1.00015 29.6455 1.17182C30.0867 1.3435 30.4894 1.60123 30.8301 1.93C31.1696 2.25441 31.4349 2.64857 31.6075 3.08533C31.7801 3.52209 31.8561 3.99108 31.8301 4.46V6.63H34.6801C35.0533 6.63068 35.4227 6.70626 35.7662 6.85227C36.1098 6.99827 36.4205 7.21173 36.6801 7.48C37.2265 8.00392 37.543 8.72313 37.5601 9.47999L37.6501 9.49Z" fill="#ECBE30"/>
</svg>
