<svg width="50" height="50" viewBox="0 0 50 50" fill="none" xmlns="http://www.w3.org/2000/svg">
<path d="M43.58 10.86H40.44V11.41V13.71V14.43H42.5C42.74 14.43 42.94 14.62 42.94 14.87V37.43C42.94 37.67 42.75 37.87 42.5 37.87H7.41999C7.17999 37.87 6.97999 37.68 6.97999 37.43V14.87C6.97999 14.63 7.16999 14.43 7.41999 14.43H8.89999V13.74V11.4V10.86H6.41999C4.93999 10.86 3.73999 12.05 3.73999 13.54V38.76C3.73999 40.24 4.92999 41.44 6.41999 41.44H20.6V43.39H18.65C18.31 43.39 18.06 43.62 17.91 43.88C17.76 44.14 17.67 44.48 17.67 44.84C17.67 45.2 17.75 45.54 17.91 45.8C18.06 46.05 18.31 46.29 18.65 46.29H31.35C31.69 46.29 31.94 46.06 32.09 45.8C32.24 45.54 32.33 45.2 32.33 44.84C32.33 44.48 32.25 44.14 32.09 43.88C31.94 43.63 31.69 43.39 31.35 43.39H29.6V41.44H43.58C45.06 41.44 46.26 40.25 46.26 38.76V13.54C46.26 12.06 45.07 10.86 43.58 10.86Z" fill="#E13A3A"/>
<path d="M37.01 24.72V6.63C37.01 6.63 33.47 5.32 30.52 5.98C27.6 6.64 25.27 8.61 25.27 8.61V26.7C25.27 26.7 27.59 24.73 30.51 24.07C33.47 23.41 37.02 24.71 37.02 24.71L37.01 24.72Z" fill="#E13A3A"/>
<path d="M18.95 24.01C21.86 24.66 24.11 26.64 24.11 26.64V8.54C24.11 8.54 21.85 6.57 18.93 5.91C15.98 5.25 12.12 6.56 12.12 6.56V24.65C12.12 24.65 15.99 23.34 18.95 24.01Z" fill="#E13A3A"/>
<path d="M19.05 27.33C22.63 28.14 24.79 30.56 24.79 30.56C24.79 30.56 26.95 28.14 30.53 27.33C34.17 26.51 39.3 28.12 39.3 28.12V8.39999C39.3 8.39999 38.85 8.30999 38.13 8.20999V26.59C38.13 26.59 33.66 25.12 30.33 25.87C27.35 26.54 25.16 28.43 24.79 28.76V28.82L24.76 28.79L24.73 28.82V28.76C24.36 28.43 22.17 26.54 19.19 25.87C15.87 25.12 10.95 26.59 10.95 26.59V8.14999C10.66 8.19999 10.36 8.24999 10.03 8.30999V28.12C10.03 28.12 15.38 26.51 19.02 27.33H19.05Z" fill="#E13A3A"/>
</svg>
