<?xml version="1.0" encoding="UTF-8" standalone="no"?>
<svg
   xmlns:dc="http://purl.org/dc/elements/1.1/"
   xmlns:cc="http://creativecommons.org/ns#"
   xmlns:rdf="http://www.w3.org/1999/02/22-rdf-syntax-ns#"
   xmlns:svg="http://www.w3.org/2000/svg"
   xmlns="http://www.w3.org/2000/svg"
   xmlns:xlink="http://www.w3.org/1999/xlink"
   xmlns:sodipodi="http://sodipodi.sourceforge.net/DTD/sodipodi-0.dtd"
   xmlns:inkscape="http://www.inkscape.org/namespaces/inkscape"
   width="22.851549mm"
   height="31.613312mm"
   viewBox="0 0 22.851549 31.613312"
   version="1.1"
   id="svg1276"
   inkscape:version="1.0 (4035a4fb49, 2020-05-01)"
   sodipodi:docname="icon-link.svg">
  <defs
     id="defs1270">
    <linearGradient
       y2="13.695829"
       x2="68.513527"
       y1="20.310413"
       x1="61.466583"
       gradientUnits="userSpaceOnUse"
       id="linearGradient973"
       xlink:href="#linearGradient952"
       inkscape:collect="always"
       gradientTransform="translate(-7.4835481,51.850288)" />
    <linearGradient
       id="linearGradient952"
       inkscape:collect="always">
      <stop
         id="stop948"
         offset="0"
         style="stop-color:#4819a7;stop-opacity:1" />
      <stop
         id="stop950"
         offset="1"
         style="stop-color:#8b5de7;stop-opacity:0" />
    </linearGradient>
  </defs>
  <sodipodi:namedview
     id="base"
     pagecolor="#ffffff"
     bordercolor="#666666"
     borderopacity="1.0"
     inkscape:pageopacity="0.0"
     inkscape:pageshadow="2"
     inkscape:zoom="2.8"
     inkscape:cx="-86.595098"
     inkscape:cy="82.424465"
     inkscape:document-units="mm"
     inkscape:current-layer="g962"
     inkscape:document-rotation="0"
     showgrid="false"
     inkscape:window-width="1920"
     inkscape:window-height="1001"
     inkscape:window-x="-9"
     inkscape:window-y="-9"
     inkscape:window-maximized="1" />
  <metadata
     id="metadata1273">
    <rdf:RDF>
      <cc:Work
         rdf:about="">
        <dc:format>image/svg+xml</dc:format>
        <dc:type
           rdf:resource="http://purl.org/dc/dcmitype/StillImage" />
        <dc:title></dc:title>
      </cc:Work>
    </rdf:RDF>
  </metadata>
  <g
     inkscape:label="Calque 1"
     inkscape:groupmode="layer"
     id="layer1"
     transform="translate(-333.61052,-46.162297)">
    <g
       id="g962"
       transform="translate(289.17696,31.767497)">
      <g
         transform="translate(7.4978436,-50.310566)"
         id="g991">
        <g
           transform="translate(0.08820521,-1.471378)"
           id="g898">
          <path
             sodipodi:nodetypes="sccssssss"
             d="m 39.030535,66.245094 h 14.48551 l 6.28551,6.332759 v 23.200021 c 0,1.15261 -0.92791,2.080528 -2.08053,2.080528 h -18.69049 c -1.15261,0 -2.08052,-0.927918 -2.08052,-2.080528 V 68.325621 c 0,-1.152612 0.92791,-2.080527 2.08052,-2.080527 z"
             style="opacity:1;fill:#8b5de7;fill-opacity:1;stroke:none;stroke-width:4.26188;stroke-linecap:round;stroke-linejoin:round;paint-order:markers stroke fill"
             id="rect833-0-43" />
          <path
             sodipodi:nodetypes="ccccc"
             d="m 59.801555,72.577855 -4.88544,0.01779 c -0.9964,0.0036 -1.40555,-0.706499 -1.40555,-1.66299 l 0.005,-4.687568 z"
             inkscape:transform-center-y="-1.7574522"
             inkscape:transform-center-x="0.85388347"
             style="opacity:0.762238;fill:url(#linearGradient973);fill-opacity:1;stroke:none;stroke-width:2.235;stroke-linecap:round;stroke-linejoin:round;paint-order:markers stroke fill"
             id="path927-2-3" />
          <path
             id="path2-9"
             d="m 47.593108,82.523828 c 0.27966,0.236619 0.27966,0.624922 0,0.861542 -0.26601,0.236622 -0.70254,0.236622 -0.96856,0 -1.33009,-1.183103 -1.33009,-3.106406 0,-4.28951 v 0 l 2.41458,-2.14779 c 1.33008,-1.183103 3.49231,-1.183103 4.82239,0 1.33007,1.183105 1.33007,3.106408 0,4.289511 l -1.01632,0.904012 c 0.008,-0.49751 -0.0818,-0.995019 -0.27283,-1.468261 l 0.32057,-0.291226 c 0.80487,-0.709863 0.80487,-1.86263 0,-2.572495 -0.79803,-0.715928 -2.094,-0.715928 -2.89205,0 l -2.40778,2.141725 c -0.80487,0.709861 -0.80487,1.862629 0,2.572492 m 1.92349,-2.572492 c 0.26602,-0.236622 0.70255,-0.236622 0.96856,0 1.33009,1.183102 1.33009,3.106405 0,4.28951 v 0 l -2.41458,2.14779 c -1.33008,1.183102 -3.4923,1.183102 -4.82239,0 -1.33008,-1.183106 -1.33008,-3.106408 0,-4.289512 l 1.01632,-0.904014 c -0.008,0.497512 0.082,0.995022 0.27283,1.474331 l -0.32057,0.285158 c -0.80487,0.709864 -0.80487,1.862631 0,2.572492 0.79804,0.715932 2.09401,0.715932 2.89205,0 l 2.40778,-2.141721 c 0.80486,-0.709862 0.80486,-1.862631 0,-2.572492 -0.27966,-0.236623 -0.27966,-0.624923 0,-0.861542 z"
             style="fill:#ffffff;fill-opacity:1;stroke-width:0.6433" />
        </g>
      </g>
    </g>
  </g>
</svg>
