<svg width="48" height="40" viewBox="0 0 48 40" fill="none" xmlns="http://www.w3.org/2000/svg">
<path d="M14.21 36.1L22.59 31.91V25L14.21 28.61V36.1ZM12.8 26.1L21.65 22.34L12.8 18.54L3.99996 22.39L12.8 26.1ZM36.61 36.1L45 31.91V25L36.62 28.61L36.61 36.1ZM35.2 26.1L44 22.39L35.19 18.59L26.34 22.39L35.2 26.1ZM25.41 19.71L33.79 16.11V10.33L25.41 13.93V19.71ZM24 11.46L33.63 7.34999L24 3.19999L14.36 7.34999L24 11.46ZM47.77 22.78V31.91C47.7736 32.4166 47.6387 32.9145 47.38 33.35C47.1142 33.7946 46.7154 34.1444 46.24 34.35L36.45 39.25C36.0646 39.4532 35.6356 39.5594 35.2 39.5594C34.7643 39.5594 34.3353 39.4532 33.95 39.25L24.16 34.35C24.0995 34.3409 24.0435 34.3129 24 34.27C23.9547 34.3105 23.8995 34.3381 23.84 34.35L14.05 39.25C13.6686 39.4634 13.2369 39.5705 12.8 39.56C12.3723 39.5732 11.9495 39.4658 11.58 39.25L1.78996 34.35C1.31893 34.1416 0.924129 33.7922 0.65996 33.35C0.396774 32.9142 0.248798 32.4187 0.22996 31.91V22.78C0.225184 22.2337 0.38934 21.6994 0.69996 21.25C1.00406 20.7962 1.4405 20.4471 1.94996 20.25L11.43 16.18V7.42999C11.4279 6.8817 11.5857 6.34469 11.8841 5.88469C12.1824 5.42468 12.6085 5.06164 13.11 4.83999L22.9 0.649993C23.2469 0.498569 23.6214 0.42041 24 0.42041C24.3785 0.42041 24.753 0.498569 25.1 0.649993L34.89 4.83999C35.3877 5.05692 35.8191 5.40198 36.14 5.83999C36.4555 6.30199 36.6197 6.8506 36.61 7.40999V16.14L46.09 20.21C46.5994 20.4071 47.0359 20.7562 47.34 21.21C47.6472 21.659 47.7983 22.1966 47.77 22.74V22.78Z" fill="#763294"/>
</svg>
