<svg width="48" height="38" viewBox="0 0 48 38" fill="none" xmlns="http://www.w3.org/2000/svg">
<path d="M37.37 14C37.3496 16.4511 36.4722 18.8178 34.89 20.69C33.1078 22.8464 30.8102 24.518 28.21 25.55C25.2911 26.7563 22.1581 27.3584 19 27.32C17.4639 27.3168 15.9311 27.1763 14.42 26.9C12.2179 28.4344 9.76421 29.5716 7.17001 30.26C6.52001 30.42 5.77001 30.56 4.93001 30.68H4.83001C4.62274 30.6687 4.42538 30.5876 4.27001 30.45C4.18656 30.3823 4.11909 30.297 4.07241 30.2002C4.02574 30.1034 4.00102 29.9975 4.00001 29.89C3.98314 29.8449 3.98314 29.7951 4.00001 29.75C3.98584 29.6875 3.98584 29.6225 4.00001 29.56C4.00845 29.5137 4.00845 29.4663 4.00001 29.42V29.28L4.09001 29.14L4.27001 29L4.41001 28.86L4.51001 28.77L5.11001 28.11L5.82001 27.36C6.03556 27.1184 6.22339 26.8534 6.38001 26.57C6.57126 26.2208 6.78855 25.8865 7.03001 25.57C7.28196 25.2211 7.4559 24.8221 7.54001 24.4C5.54561 23.275 3.83525 21.7083 2.54001 19.82C1.22755 17.9547 0.574019 15.7053 0.682676 13.4271C0.791332 11.1489 1.65598 8.97191 3.14001 7.23999C4.92285 5.10212 7.20758 3.43925 9.79001 2.39999C12.709 1.19321 15.8415 0.587801 19 0.619994C22.1583 0.589717 25.2904 1.19506 28.21 2.39999C30.8081 3.43577 33.1049 5.10677 34.89 7.25999C36.4802 9.14706 37.3579 11.5323 37.37 14ZM47.37 20.64C47.3655 22.7486 46.7127 24.8049 45.5 26.53C44.2091 28.4221 42.4978 29.9896 40.5 31.11C40.6358 31.5092 40.803 31.8971 41 32.27C41.1851 32.6228 41.4027 32.9576 41.65 33.27C41.9 33.59 42.11 33.84 42.26 34.02C42.41 34.2 42.64 34.47 42.92 34.82C43.0992 35.055 43.3001 35.2726 43.52 35.47L43.62 35.56L43.76 35.7C43.7965 35.7458 43.8268 35.7962 43.85 35.85C43.8754 35.8995 43.9055 35.9464 43.94 35.99L43.99 36.13V36.27C43.9984 36.3297 43.9984 36.3903 43.99 36.45C44 36.4961 44 36.5439 43.99 36.59C43.9419 36.8212 43.8272 37.0332 43.66 37.2C43.5899 37.2758 43.5019 37.3329 43.4041 37.3661C43.3063 37.3992 43.2018 37.4075 43.1 37.39C42.23 37.26 41.48 37.12 40.86 36.97C38.2477 36.284 35.7766 35.1432 33.56 33.6C32.0548 33.868 30.5288 34.0018 29 34C24.6495 34.1015 20.3685 32.8963 16.71 30.54C17.71 30.64 18.47 30.68 19 30.68C21.7098 30.6873 24.4058 30.293 27 29.51C29.5017 28.7811 31.8665 27.6459 34 26.15C36.0293 24.658 37.731 22.7657 39 20.59C40.1438 18.5845 40.7275 16.3084 40.69 14C40.6935 12.6432 40.4877 11.2941 40.08 9.99999C42.1935 11.1064 44.0189 12.692 45.41 14.63C46.6943 16.3682 47.3945 18.4688 47.41 20.63L47.37 20.64Z" fill="#2A9CC8"/>
</svg>
