<svg width="48" height="40" viewBox="0 0 48 40" fill="none" xmlns="http://www.w3.org/2000/svg">
<path d="M47.3199 29.14V37.49C47.3251 37.8216 47.2621 38.1507 47.1348 38.4569C47.0075 38.7631 46.8186 39.0398 46.5799 39.27C46.3475 39.505 46.0701 39.6908 45.7642 39.8162C45.4584 39.9416 45.1304 40.0041 44.7999 40H36.4999C35.8384 39.9896 35.207 39.7215 34.7401 39.2528C34.2732 38.784 34.0076 38.1516 33.9999 37.49V29.14C33.9974 28.8094 34.0626 28.4818 34.1916 28.1773C34.3206 27.8729 34.5106 27.5981 34.7499 27.37C34.9763 27.1316 35.2519 26.9455 35.5576 26.8246C35.8633 26.7037 36.1917 26.6509 36.5199 26.67H38.9999V21.67H25.6799V26.67H28.1499C28.4773 26.658 28.8036 26.714 29.1083 26.8345C29.4129 26.955 29.6893 27.1373 29.9199 27.37C30.3903 27.8402 30.6593 28.475 30.6699 29.14V37.49C30.6621 38.155 30.3937 38.7904 29.9226 39.2597C29.4514 39.729 28.8149 39.9948 28.1499 40H19.8499C19.5192 40.01 19.1901 39.9492 18.8848 39.8215C18.5795 39.6939 18.3051 39.5024 18.0799 39.26C17.6173 38.7805 17.35 38.1459 17.3299 37.48V29.14C17.3274 28.8094 17.3926 28.4818 17.5216 28.1773C17.6506 27.8729 17.8406 27.5981 18.0799 27.37C18.3054 27.1305 18.5809 26.9436 18.8869 26.8226C19.1928 26.7017 19.5216 26.6495 19.8499 26.67H22.3199V21.67H8.9999V26.67H11.4999C11.8271 26.6598 12.1529 26.7166 12.4573 26.837C12.7617 26.9574 13.0382 27.1388 13.2699 27.37C13.733 27.8434 13.9947 28.4778 13.9999 29.14V37.49C13.9922 38.1516 13.7266 38.784 13.2597 39.2528C12.7928 39.7215 12.1614 39.9896 11.4999 40H3.1999C2.86784 40.0089 2.53764 39.9475 2.2309 39.82C1.92417 39.6925 1.64781 39.5017 1.4199 39.26C0.964206 38.7769 0.700997 38.1438 0.679903 37.48V29.14C0.675492 28.81 0.738898 28.4827 0.866189 28.1782C0.99348 27.8737 1.18194 27.5986 1.4199 27.37C1.64779 27.1308 1.92514 26.9443 2.23258 26.8234C2.54002 26.7025 2.87014 26.6501 3.1999 26.67H5.6699V21.67C5.66865 21.2265 5.75653 20.7873 5.92831 20.3785C6.1001 19.9696 6.35228 19.5995 6.6699 19.29C6.96716 18.9567 7.33509 18.6939 7.74684 18.5209C8.15859 18.3479 8.60378 18.269 9.0499 18.29H22.3199V13.29H19.8499C19.5182 13.3001 19.1883 13.2382 18.8828 13.1088C18.5773 12.9793 18.3034 12.7853 18.0799 12.54C17.6245 12.08 17.3571 11.4667 17.3299 10.82V2.50999C17.3266 2.17779 17.3914 1.84843 17.5204 1.54227C17.6494 1.23612 17.8399 0.959663 18.0799 0.729994C18.3098 0.49432 18.5853 0.308025 18.8896 0.182505C19.194 0.0569858 19.5207 -0.00511801 19.8499 -6.01751e-06H28.1499C28.4806 -0.0100168 28.8097 0.0508361 29.115 0.178468C29.4203 0.306101 29.6947 0.497559 29.9199 0.739994C30.3825 1.21948 30.6498 1.85406 30.6699 2.51999V10.87C30.676 11.1938 30.6122 11.5151 30.4828 11.8119C30.3533 12.1088 30.1613 12.3742 29.9199 12.59C29.4451 13.0536 28.8132 13.3213 28.1499 13.34H25.6799V18.34H38.9999C39.4431 18.3404 39.8818 18.4291 40.2904 18.6008C40.699 18.7724 41.0694 19.0237 41.3799 19.34C41.7132 19.6372 41.976 20.0052 42.149 20.4169C42.322 20.8287 42.4009 21.2739 42.3799 21.72V26.72H44.8599C45.1871 26.7098 45.5129 26.7666 45.8173 26.887C46.1217 27.0074 46.3982 27.1888 46.6299 27.42C47.0932 27.8941 47.3579 28.5272 47.3699 29.19L47.3199 29.14Z" fill="#2A9CC8"/>
</svg>
