<svg width="50" height="40" viewBox="0 0 50 40" fill="none" xmlns="http://www.w3.org/2000/svg">
<path d="M31.21 31.34H19.64V30.34H31.21V31.34ZM26.44 28.26H19.64V27.26H26.44V28.26ZM28.44 25.18H19.64V24.18H28.48L28.44 25.18ZM31.86 22.18H19.64V21.18H31.9L31.86 22.18ZM26.4 19.11H19.6V18H26.4V19.11ZM34.89 12.45H16.56V37H34.93L34.89 12.45ZM13.53 40V9.39H38V40H13.53ZM9.30998 15C8.2278 15.9621 7.49612 17.2566 7.22998 18.68L14.82 26.62C15.3315 25.8608 15.5776 24.9537 15.52 24.04C16.12 23.7996 16.6635 23.4373 17.1162 22.976C17.5689 22.5147 17.9209 21.9644 18.15 21.36C18.9902 21.4614 19.8382 21.2476 20.53 20.76L12.93 12.82C11.5276 13.1564 10.2633 13.9178 9.30998 15ZM1.16998 11.88C1.70085 12.4962 2.19823 13.1404 2.65998 13.81C2.81497 12.3831 3.48308 11.0611 4.53998 10.09C5.4991 8.99239 6.82498 8.28146 8.26998 8.09C7.61998 7.6 6.77998 6.85 6.47998 6.6C5.68998 5.81 4.14998 5.26 1.90998 7.15C-0.330022 9.04 0.319978 11 1.16998 11.88ZM16.61 25.08C16.493 25.8422 16.2567 26.5812 15.91 27.27L24.65 31L21.13 22C21.13 22 20.78 22.35 19.29 22.35C19.0564 22.9716 18.6982 23.5389 18.2373 24.017C17.7764 24.495 17.2226 24.8738 16.61 25.13V25.08ZM5.48998 11.08C3.34998 13.32 3.64998 14.85 3.64998 14.85L4.48998 15.7C4.76426 14.3406 5.46486 13.104 6.48998 12.17C7.44187 11.0655 8.70269 10.2714 10.11 9.89L9.20998 9C9.20998 9 7.56998 9 5.48998 11.08ZM7.26998 13C5.26998 15.13 5.53998 16.62 5.53998 16.62L6.27998 17.42C6.59077 16.1197 7.26338 14.934 8.21998 14C9.12877 12.9382 10.339 12.1779 11.69 11.82L10.85 11C10.85 11 9.25998 10.93 7.26998 13ZM37.11 7L29.52 14.9C30.189 15.3955 31.0248 15.6107 31.85 15.5C32.0755 16.1144 32.432 16.6724 32.8948 17.1352C33.3576 17.598 33.9156 17.9545 34.53 18.18C34.444 19.0963 34.6927 20.0128 35.23 20.76L42.82 12.82C42.5216 11.4 41.7749 10.1135 40.69 9.15C39.7676 8.05675 38.5084 7.30056 37.11 7ZM48.11 1.29C45.85 -0.59 44.31 -2.38419e-07 43.52 0.75C43.27 1.05 42.38 1.75 41.78 2.29C43.2061 2.45377 44.519 3.14593 45.46 4.23C46.007 4.70294 46.4548 5.27965 46.7775 5.92675C47.1002 6.57386 47.2914 7.27853 47.34 8C47.89 7.31 48.68 6.22 48.83 6.07C49.68 5.17 50.32 3.24 48.09 1.35L48.11 1.29ZM30.71 16.44C29.22 16.44 28.87 16.1 28.87 16.1L25.4 25.1L34.09 21.38C33.7427 20.6953 33.5225 19.9533 33.44 19.19C32.8181 18.9395 32.2546 18.5633 31.7848 18.0849C31.3151 17.6066 30.9492 17.0363 30.71 16.41V16.44ZM40.79 3.14L39.94 4C41.328 4.40481 42.5705 5.19963 43.52 6.29C44.5188 7.24073 45.2146 8.46529 45.52 9.81L46.31 8.97C46.31 8.97 46.61 7.43 44.47 5.24C42.33 3.05 40.79 3.14 40.79 3.14ZM39.15 5.14L38.31 6C39.6582 6.36425 40.8667 7.12345 41.78 8.18C42.7566 9.08213 43.4336 10.2617 43.72 11.56L44.51 10.76C44.51 10.76 44.76 9.27 42.73 7.19C40.7 5.11 39.15 5.12 39.15 5.12V5.14Z" fill="#2A9CC8"/>
</svg>
