<svg width="37" height="37" viewBox="0 0 37 37" fill="none" xmlns="http://www.w3.org/2000/svg">
<path d="M29.0822 36.9999H7.91765C5.71828 36.9999 3.85728 36.2227 2.33465 34.6684C0.81202 33.1141 0.0338032 31.2557 0 29.0931V7.90682C0 5.71046 0.778217 3.852 2.33465 2.33146C3.89109 0.810909 5.75209 0.0337569 7.91765 0H21.1138C21.8582 0 22.4842 0.270326 22.9917 0.810977C23.4992 1.35163 23.7699 1.95986 23.8038 2.63567C23.8376 3.31149 23.5669 3.9366 22.9917 4.51101C22.4164 5.08541 21.7905 5.35574 21.1138 5.32198H7.91765C7.20711 5.32198 6.58114 5.5754 6.03975 6.08222C5.49836 6.58905 5.2446 7.19728 5.27847 7.90692V29.0932C5.27847 29.8028 5.53223 30.411 6.03975 30.9179C6.54727 31.4248 7.17324 31.6782 7.91765 31.6781H29.0822C29.7928 31.6781 30.4019 31.4247 30.9094 30.9179C31.417 30.4111 31.6877 29.8028 31.7215 29.0932V21.1356C31.7215 20.4261 31.9922 19.8178 32.5336 19.3109C33.075 18.804 33.701 18.5337 34.4115 18.5C35.1221 18.4662 35.7311 18.7365 36.2387 19.3109C36.7463 19.8853 37.0001 20.4936 37 21.1356V29.0932C37 31.2895 36.2218 33.148 34.6653 34.6685C33.1089 36.1891 31.2479 36.9662 29.0823 37L29.0822 36.9999ZM21.5706 25.9506C20.5894 25.9506 19.7604 25.6127 19.0837 24.9369L12.0796 17.9425C11.4029 17.1991 11.0645 16.3543 11.0645 15.4083C11.0645 14.4622 11.4029 13.6343 12.0796 12.9247C12.7563 12.215 13.5684 11.8771 14.5158 11.911C15.4631 11.9448 16.2921 12.2827 17.0027 12.9247L20.8094 16.6754L29.9451 2.28082C30.4189 1.43609 31.1294 0.878558 32.0769 0.608232C33.0243 0.337907 33.921 0.422367 34.7669 0.861612C35.6128 1.30086 36.171 2.01046 36.4417 2.99043C36.7124 3.97039 36.594 4.86583 36.0865 5.67674L24.6668 24.126C24.0577 25.3425 23.0257 25.9507 21.5707 25.9507L21.5706 25.9506Z" fill="#2A9CC8"/>
</svg>
