<svg width="40" height="42" viewBox="0 0 40 42" fill="none" xmlns="http://www.w3.org/2000/svg">
<path d="M11.18 0.29999C10.39 0.61999 10.25 1.12999 10.25 4.79999C10.25 7.99999 10.3 8.45999 10.67 8.79999C10.9481 9.04606 11.2995 9.19366 11.67 9.21999C13.02 9.16999 13.25 8.46999 13.25 4.57999C13.25 1.41999 13.25 1.27999 12.69 0.71999C12.5297 0.475787 12.2852 0.299054 12.0031 0.223449C11.7209 0.147843 11.4209 0.178645 11.16 0.30999L11.18 0.29999ZM27.43 0.56999C26.87 0.98999 26.87 1.17999 26.78 4.18999C26.68 7.62999 26.78 8.27999 27.33 8.83999C27.62 9.08075 27.9875 9.20833 28.3643 9.19914C28.7412 9.18995 29.102 9.04461 29.38 8.78999C29.7 8.41999 29.75 7.78999 29.75 4.78999C29.75 0.93999 29.65 0.56999 28.59 0.28999C28.3853 0.242352 28.1719 0.246675 27.9693 0.302565C27.7667 0.358455 27.5813 0.464138 27.43 0.60999V0.56999ZM3.05996 5.30999C2.37161 5.71313 1.78356 6.26699 1.33996 6.92999C0.739961 7.92999 0.649961 8.32999 0.549961 10.37L0.459961 12.69H39.54L39.45 10.41C39.35 7.67999 38.84 6.51999 37.36 5.53999C36.48 4.93999 36.2 4.88999 33.55 4.83999L30.67 4.74999V6.60999C30.67 8.27999 30.67 8.60999 30.07 9.15999C29.7589 9.596 29.2957 9.89952 28.7717 10.0106C28.2477 10.1217 27.7012 10.0323 27.24 9.75999C26.31 9.20999 26 8.50999 26 6.51999V4.79999H14V6.51999C14 8.51999 13.76 9.20999 12.79 9.75999C12.3281 10.03 11.7823 10.1181 11.259 10.0071C10.7356 9.8962 10.2725 9.59414 9.95996 9.15999C9.44996 8.55999 9.35996 8.27999 9.35996 6.60999V4.79999H6.75996C4.43996 4.79999 3.96996 4.79999 3.08996 5.30999H3.05996ZM0.509961 25.73C0.509961 39.05 0.509961 39.19 2.12996 40.63C2.58906 41.0597 3.1251 41.399 3.70996 41.63C4.54996 41.86 35.5 41.86 36.34 41.63C36.9023 41.3847 37.4195 41.0466 37.87 40.63C39.49 39.19 39.49 39.05 39.49 25.73V14.08H0.489961V25.73H0.509961ZM10.21 19.09L10.16 23H1.80996L1.70996 19.1V15.25H10.29L10.21 19.09ZM19.54 18.91V22.57L18.33 22C17.3973 21.6092 16.3962 21.4079 15.385 21.4079C14.3737 21.4079 13.3726 21.6092 12.44 22C12.0773 22.1924 11.7032 22.3628 11.32 22.51C11.1727 21.3093 11.1258 20.0984 11.18 18.89V15.24H19.54V18.91ZM29 19.09V23L24.87 23.09L20.74 23.14V15.24H29.09V19.09H29ZM38.29 19.09V22.99H30.12L30.02 19.09V15.24H38.37L38.29 19.09ZM8.85996 25.31C8.36455 26.2236 8.0788 27.2361 8.02345 28.2739C7.9681 29.3117 8.14454 30.3489 8.53996 31.31C8.67996 31.68 8.43996 31.73 5.19996 31.73H1.66996V24.06H9.55996L8.85996 25.31ZM19.54 27.86V31.72H11.18V24.06H19.54V27.86ZM29.05 27.86V31.72H25.43C22.09 31.72 21.81 31.72 22 31.3C22.1948 30.7216 22.3486 30.1301 22.46 29.53C22.6592 28.7573 22.6999 27.9522 22.5796 27.1634C22.4593 26.3745 22.1805 25.6182 21.76 24.94L21.16 24.06H29.05V27.86ZM38.33 27.86V31.72H30V24.06H38.35V27.86H38.33ZM9.83996 33C10.21 33.32 10.25 33.78 10.25 37.08V40.79L7.13996 40.7C4.44996 40.7 3.93996 40.56 3.38996 40.14C1.99996 39.1 1.80996 38.68 1.70996 35.52L1.61996 32.64H5.51996C8.81996 32.64 9.45996 32.64 9.83996 33.02V33ZM19.54 32.9C19.54 33.55 17.96 34.53 16.47 34.81C15.17 35.08 15.08 35.5 16.33 35.36C17.4077 35.1901 18.447 34.8312 19.4 34.3C19.5518 35.3594 19.5987 36.4313 19.54 37.5V40.75H11.18V37.61C11.18 34.69 11.23 34.45 11.6 34.61C13.32 35.31 13.97 35.5 14.34 35.36C14.71 35.22 14.34 34.99 13.04 34.36C12.04 33.84 11.27 33.36 11.23 33.06C11.19 32.76 11.51 32.68 15.36 32.68C18.7 32.68 19.54 32.68 19.54 32.96V32.9ZM29.05 36.66V40.75H20.7V37.05C20.7 35.05 20.79 33.2 20.84 33.05C20.97 32.72 21.58 32.67 25.01 32.67H29.01L29.05 36.66ZM38.33 35.5C38.24 38.66 38.05 39.08 36.62 40.14C36.06 40.61 35.62 40.65 33.04 40.65H30.12L30.02 36.65V32.65H38.42L38.37 35.53L38.33 35.5Z" fill="#B930A2"/>
</svg>
