<svg width="50" height="50" viewBox="0 0 50 50" fill="none" xmlns="http://www.w3.org/2000/svg">
<path d="M44.61 40.09H5.38998C5.09174 40.09 4.84998 40.3318 4.84998 40.63V43.58C4.84998 43.8782 5.09174 44.12 5.38998 44.12H44.61C44.9082 44.12 45.15 43.8782 45.15 43.58V40.63C45.15 40.3318 44.9082 40.09 44.61 40.09Z" fill="#E13A3A"/>
<path d="M10.76 34.72H5.38998C5.09174 34.72 4.84998 34.9618 4.84998 35.26V38.21C4.84998 38.5082 5.09174 38.75 5.38998 38.75H10.76C11.0582 38.75 11.3 38.5082 11.3 38.21V35.26C11.3 34.9618 11.0582 34.72 10.76 34.72Z" fill="#E13A3A"/>
<path d="M19.2199 31.36H13.8499C13.5517 31.36 13.3099 31.6018 13.3099 31.9V38.21C13.3099 38.5082 13.5517 38.75 13.8499 38.75H19.2199C19.5182 38.75 19.7599 38.5082 19.7599 38.21V31.9C19.7599 31.6018 19.5182 31.36 19.2199 31.36Z" fill="#E13A3A"/>
<path d="M27.69 29.34H22.32C22.0218 29.34 21.78 29.5818 21.78 29.88V38.2C21.78 38.4982 22.0218 38.74 22.32 38.74H27.69C27.9883 38.74 28.23 38.4982 28.23 38.2V29.88C28.23 29.5818 27.9883 29.34 27.69 29.34Z" fill="#E13A3A"/>
<path d="M36.15 24.64H30.78C30.4818 24.64 30.24 24.8818 30.24 25.18V38.2C30.24 38.4982 30.4818 38.74 30.78 38.74H36.15C36.4482 38.74 36.69 38.4982 36.69 38.2V25.18C36.69 24.8818 36.4482 24.64 36.15 24.64Z" fill="#E13A3A"/>
<path d="M44.61 18.6H39.24C38.9417 18.6 38.7 18.8418 38.7 19.14V38.21C38.7 38.5082 38.9417 38.75 39.24 38.75H44.61C44.9082 38.75 45.15 38.5082 45.15 38.21V19.14C45.15 18.8418 44.9082 18.6 44.61 18.6Z" fill="#E13A3A"/>
<path d="M5.50004 31C13.6613 30.9571 21.6732 28.8078 28.76 24.76C39.3 18.54 42.06 15.1 42.52 14.47L44.61 15.55C44.87 15.69 45.08 15.55 45.08 15.26V4.26C45.08 3.96 44.88 3.86 44.64 4.03L35.64 10.38C35.5824 10.3993 35.5322 10.4362 35.4967 10.4856C35.4612 10.5349 35.4421 10.5942 35.4421 10.655C35.4421 10.7158 35.4612 10.7751 35.4967 10.8244C35.5322 10.8738 35.5824 10.9107 35.64 10.93L38 12.07C37.66 12.77 35.8 15.54 25.92 22.07C14.28 29.68 5.48004 30.73 5.48004 30.73C4.75004 30.86 4.76004 30.95 5.48004 30.95L5.50004 31Z" fill="#E13A3A"/>
</svg>
