<svg width="42" height="41" viewBox="0 0 42 41" fill="none" xmlns="http://www.w3.org/2000/svg">
<path d="M24.33 33.5V28.5C24.3357 28.3882 24.3179 28.2764 24.2777 28.1719C24.2376 28.0674 24.1759 27.9724 24.0967 27.8933C24.0175 27.8141 23.9226 27.7524 23.8181 27.7122C23.7136 27.6721 23.6018 27.6543 23.49 27.66H18.49C18.3781 27.6558 18.2665 27.6739 18.1617 27.7134C18.057 27.7529 17.9612 27.8129 17.88 27.89C17.8015 27.9702 17.7405 28.0658 17.7009 28.1708C17.6613 28.2759 17.644 28.3879 17.65 28.5V33.5C17.644 33.6121 17.6613 33.7242 17.7009 33.8292C17.7405 33.9342 17.8015 34.0298 17.88 34.11C17.9612 34.1871 18.057 34.2471 18.1617 34.2866C18.2665 34.3261 18.3781 34.3442 18.49 34.34H23.49C23.6018 34.3457 23.7136 34.328 23.8181 34.2878C23.9226 34.2476 24.0175 34.1859 24.0967 34.1067C24.1759 34.0276 24.2376 33.9326 24.2777 33.8281C24.3179 33.7236 24.3357 33.6118 24.33 33.5ZM31 16C30.9965 14.4625 30.4869 12.969 29.55 11.75C28.6074 10.4802 27.377 9.45207 25.96 8.75C24.587 8.05263 23.0699 7.6862 21.53 7.68C19.5636 7.61853 17.6188 8.10501 15.9129 9.08509C14.207 10.0652 12.8073 11.5003 11.87 13.23C11.8012 13.3131 11.7512 13.41 11.7234 13.5141C11.6955 13.6183 11.6904 13.7272 11.7084 13.8335C11.7264 13.9398 11.7672 14.041 11.8278 14.1301C11.8885 14.2192 11.9677 14.2942 12.06 14.35L15.51 16.91C15.5701 16.9735 15.6432 17.0234 15.7243 17.0561C15.8054 17.0889 15.8926 17.1039 15.98 17.1C16.1074 17.1048 16.234 17.077 16.3478 17.0193C16.4615 16.9615 16.5586 16.8757 16.63 16.77C17.273 15.8881 18.0258 15.0917 18.87 14.4C19.5242 13.9406 20.3112 13.7088 21.11 13.74C21.9116 13.7325 22.6952 13.9774 23.35 14.44C23.6275 14.5982 23.8632 14.8205 24.0371 15.0885C24.2111 15.3564 24.3184 15.6621 24.35 15.98C24.3785 16.556 24.1933 17.1222 23.83 17.57C23.3101 18.0786 22.6856 18.4676 22 18.71C20.8476 19.2498 19.8245 20.0308 19 21C18.5698 21.4287 18.229 21.9384 17.9973 22.4997C17.7655 23.061 17.6475 23.6627 17.65 24.27V25.2C17.644 25.3121 17.6613 25.4242 17.7009 25.5292C17.7405 25.6342 17.8015 25.7298 17.88 25.81C17.9612 25.8871 18.057 25.9471 18.1617 25.9866C18.2665 26.0261 18.3781 26.0443 18.49 26.04H23.49C23.6018 26.0457 23.7136 26.028 23.8181 25.9878C23.9226 25.9476 24.0175 25.8859 24.0967 25.8067C24.1759 25.7276 24.2376 25.6326 24.2777 25.5281C24.3179 25.4236 24.3357 25.3118 24.33 25.2C24.3905 24.7346 24.5851 24.2968 24.89 23.94C25.2601 23.4131 25.7371 22.9701 26.29 22.64C26.85 22.33 27.29 22.08 27.59 21.89C28.0034 21.6255 28.3947 21.3279 28.76 21C29.1959 20.6281 29.5853 20.2051 29.92 19.74C30.2582 19.2599 30.5119 18.7256 30.67 18.16C30.8753 17.4578 30.9862 16.7314 31 16ZM41 21C41.0241 24.5113 40.1055 27.9648 38.34 31C36.5804 34.041 34.0482 36.5629 31 38.31C27.9696 40.0906 24.5147 41.02 21 41C17.4622 41.0172 13.9846 40.0848 10.93 38.3C7.90338 36.5696 5.40688 34.0455 3.70997 31C2.00042 27.9393 1.06976 24.5051 0.999969 21C0.887497 17.4712 1.83113 13.9892 3.70997 11C5.5202 8.04345 7.99596 5.55057 10.94 3.72C13.97 1.88347 17.4573 0.940573 21 1C24.5219 0.933325 27.9902 1.86976 31 3.7C33.958 5.55181 36.4601 8.04709 38.32 11C40.2617 13.9601 41.2012 17.4656 41 21Z" fill="#46BFAF"/>
</svg>
