<svg width="32" height="46" viewBox="0 0 32 46" fill="none" xmlns="http://www.w3.org/2000/svg">
<path d="M25.5201 34C27.0345 34 28.4868 34.6016 29.5577 35.6724C30.6285 36.7433 31.2301 38.1956 31.2301 39.71C31.2301 41.2244 30.6285 42.6768 29.5577 43.7476C28.4868 44.8184 27.0345 45.42 25.5201 45.42C24.3821 45.4859 23.2539 45.1774 22.3077 44.5418C21.3615 43.9062 20.6494 42.9784 20.2801 41.9H12.4801C9.68008 41.9 7.61008 41.04 6.24008 39.33C4.92586 37.751 4.20119 35.7643 4.19008 33.71V11.58C3.14999 11.1648 2.26337 10.4388 1.65128 9.50093C1.03919 8.56311 0.731455 7.45923 0.770084 6.34C0.762259 5.59571 0.905315 4.85755 1.19062 4.17007C1.47592 3.48259 1.89756 2.86004 2.43008 2.34C2.95595 1.80131 3.58662 1.3761 4.28318 1.0906C4.97974 0.805091 5.72742 0.665351 6.48008 0.679998C7.23142 0.674679 7.97631 0.818741 8.67148 1.10381C9.36666 1.38888 9.99824 1.80928 10.5295 2.34056C11.0608 2.87185 11.4812 3.50343 11.7663 4.1986C12.0513 4.89377 12.1954 5.63867 12.1901 6.39C12.2279 7.5104 11.9187 8.61513 11.3048 9.55309C10.6908 10.4911 9.80205 11.2164 8.76008 11.63V17C8.76008 19.48 10.0001 20.72 12.4801 20.72H20.2801C20.665 19.6584 21.3838 18.7503 22.3286 18.1319C23.2733 17.5134 24.3932 17.218 25.5201 17.29C26.2714 17.2847 27.0163 17.4287 27.7115 17.7138C28.4067 17.9989 29.0382 18.4193 29.5695 18.9506C30.1008 19.4818 30.5212 20.1134 30.8063 20.8086C31.0913 21.5038 31.2354 22.2487 31.2301 23C31.2354 23.7513 31.0913 24.4962 30.8063 25.1914C30.5212 25.8866 30.1008 26.5182 29.5695 27.0494C29.0382 27.5807 28.4067 28.0011 27.7115 28.2862C27.0163 28.5713 26.2714 28.7153 25.5201 28.71C24.3821 28.7759 23.2539 28.4674 22.3077 27.8318C21.3615 27.1962 20.6494 26.2684 20.2801 25.19H12.4801C11.2001 25.2041 9.93193 24.945 8.76008 24.43V33.66C8.76008 36.14 10.0001 37.38 12.4801 37.38H20.2801C20.6735 36.3278 21.3959 35.4305 22.3399 34.8216C23.284 34.2127 24.3992 33.9245 25.5201 34ZM25.5201 19.72C25.0882 19.7166 24.66 19.7989 24.26 19.9619C23.8601 20.125 23.4965 20.3656 23.1901 20.67C22.8637 20.9728 22.6057 21.3417 22.4333 21.7521C22.2608 22.1625 22.1779 22.605 22.1901 23.05C22.1838 23.4795 22.2699 23.9053 22.4424 24.2986C22.6149 24.692 22.8699 25.0437 23.1901 25.33C23.81 25.9443 24.6474 26.289 25.5201 26.289C26.3928 26.289 27.2302 25.9443 27.8501 25.33C28.1703 25.0437 28.4252 24.692 28.5978 24.2986C28.7703 23.9053 28.8563 23.4795 28.8501 23.05C28.8622 22.605 28.7793 22.1625 28.6069 21.7521C28.4344 21.3417 28.1764 20.9728 27.8501 20.67C27.5478 20.3566 27.1861 20.1067 26.786 19.935C26.3858 19.7633 25.9555 19.6732 25.5201 19.67V19.72ZM3.15008 6.34C3.14383 6.76947 3.22988 7.19528 3.4024 7.58863C3.57492 7.98198 3.8299 8.3337 4.15008 8.62C4.76995 9.23433 5.60736 9.579 6.48008 9.579C7.35281 9.579 8.19021 9.23433 8.81008 8.62C9.13027 8.3337 9.38524 7.98198 9.55777 7.58863C9.73029 7.19528 9.81633 6.76947 9.81008 6.34C9.82224 5.89499 9.73932 5.45251 9.56688 5.0421C9.39444 4.63169 9.13643 4.26278 8.81008 3.96C8.1877 3.35045 7.35124 3.00907 6.48008 3.00907C5.60893 3.00907 4.77247 3.35045 4.15008 3.96C3.82374 4.26278 3.56573 4.63169 3.39329 5.0421C3.22084 5.45251 3.13793 5.89499 3.15008 6.34ZM25.5201 42.9C26.3852 42.9201 27.2231 42.5965 27.8501 42C28.1716 41.7126 28.4273 41.3593 28.5999 40.9641C28.7724 40.5689 28.8578 40.1411 28.8501 39.71C28.861 39.2652 28.7775 38.8231 28.6051 38.4129C28.4327 38.0026 28.1754 37.6336 27.8501 37.33C27.2277 36.7205 26.3912 36.3791 25.5201 36.3791C24.6489 36.3791 23.8125 36.7205 23.1901 37.33C22.8648 37.6336 22.6074 38.0026 22.4351 38.4129C22.2627 38.8231 22.1792 39.2652 22.1901 39.71C22.1824 40.1411 22.2677 40.5689 22.4403 40.9641C22.6129 41.3593 22.8686 41.7126 23.1901 42C23.8171 42.5965 24.6549 42.9201 25.5201 42.9Z" fill="#ECBE30"/>
</svg>
