<svg width="43" height="42" viewBox="0 0 43 42" fill="none" xmlns="http://www.w3.org/2000/svg">
<path d="M14.0585 6.0781C14.2008 6.0781 14.3162 6.35109 14.3162 6.68782V34.4695C14.3162 34.8063 14.2008 35.0792 14.0585 35.0792C13.9162 35.0792 13.8008 34.8062 13.8008 34.4695V6.68782C13.8008 6.35105 13.9162 6.0781 14.0585 6.0781ZM14.2177 16.0959V16.1195C14.2177 16.2555 14.1076 16.3658 13.9718 16.3658H2.76558C2.62978 16.3658 2.51964 16.2555 2.51964 16.1195V16.0959C2.51964 15.9598 2.62978 15.8495 2.76558 15.8495H13.9718C14.1076 15.8495 14.2177 15.9598 14.2177 16.0959ZM13.9912 25.3861V25.4097C13.9912 25.5457 13.881 25.656 13.7452 25.656H2.53906C2.40325 25.656 2.29311 25.5457 2.29311 25.4097V25.3861C2.29311 25.25 2.40325 25.1397 2.53906 25.1397H13.7452C13.881 25.1397 13.9912 25.25 13.9912 25.3861ZM4.64649 33.8728C4.66545 33.7309 4.68009 33.5875 4.70492 33.447C4.89625 32.4154 5.43378 31.6091 6.28678 31.0019C6.8769 31.5623 7.57212 31.8579 8.38424 31.8564C9.19341 31.8564 9.88721 31.5638 10.4832 30.9989C10.6015 31.0926 10.7256 31.1818 10.8395 31.2828C11.5582 31.9223 11.9818 32.7197 12.0971 33.6782C12.1044 33.7426 12.1146 33.8084 12.1234 33.8728C12.1234 33.9504 12.1234 34.0294 12.1234 34.1069C9.63011 34.1069 7.13832 34.1069 4.64502 34.1069C4.64649 34.0294 4.64649 33.9503 4.64649 33.8728ZM8.56098 26.6149C8.70848 26.6442 8.85893 26.6632 9.00208 26.7042C9.87844 26.9486 10.527 27.7256 10.6175 28.6343C10.7432 29.8941 9.82002 31.0004 8.55661 31.1043C7.41883 31.1994 6.3715 30.3873 6.17874 29.2591C5.97134 28.0533 6.72356 26.9295 7.91688 26.6647C8.01326 26.6427 8.11262 26.631 8.21047 26.6149C8.32732 26.6149 8.44417 26.6149 8.56102 26.6149H8.56098ZM17.4525 32.8153C17.5027 32.4398 17.5414 32.0605 17.607 31.6889C18.1132 28.9601 19.5351 26.8273 21.7914 25.2209C23.3524 26.7034 25.1915 27.4853 27.3397 27.4815C29.4802 27.4815 31.3155 26.7073 32.8918 25.2132C33.2048 25.461 33.5332 25.6971 33.8346 25.9641C35.7355 27.6556 36.856 29.7652 37.1612 32.3005C37.1805 32.4708 37.2076 32.645 37.2308 32.8153C37.2308 33.0205 37.2308 33.2295 37.2308 33.4346C30.6355 33.4346 24.044 33.4346 17.4487 33.4346C17.4525 33.2294 17.4525 33.0204 17.4525 32.8153H17.4525ZM27.8072 13.6164C28.1975 13.6939 28.5954 13.7442 28.974 13.8525C31.2923 14.4989 33.0077 16.5543 33.2473 18.9581C33.5796 22.2907 31.1377 25.217 27.7956 25.4919C24.7858 25.7435 22.0154 23.5952 21.5055 20.6109C20.9568 17.4214 22.9467 14.4487 26.1033 13.7481C26.3583 13.6901 26.621 13.6591 26.8799 13.6165C27.1889 13.6165 27.498 13.6165 27.8071 13.6165L27.8072 13.6164ZM4.63185 24.8985C4.65081 24.7566 4.66545 24.6132 4.69028 24.4727C4.88162 23.4411 5.41914 22.6348 6.27214 22.0275C6.86226 22.588 7.55748 22.8836 8.3696 22.8821C9.17878 22.8821 9.87257 22.5895 10.4685 22.0246C10.5868 22.1183 10.711 22.2075 10.8249 22.3085C11.5435 22.9479 11.9671 23.7454 12.0825 24.7039C12.0898 24.7682 12.1 24.8341 12.1088 24.8985C12.1088 24.9761 12.1088 25.0551 12.1088 25.1326C9.61547 25.1326 7.12368 25.1326 4.63039 25.1326C4.63185 25.0551 4.63185 24.976 4.63185 24.8985ZM8.54634 17.6407C8.69385 17.67 8.84429 17.6889 8.98744 17.7299C9.86381 17.9743 10.5123 18.7513 10.6029 19.66C10.7285 20.9199 9.80538 22.0261 8.54198 22.13C7.40419 22.2251 6.35687 21.413 6.1641 20.2848C5.9567 19.0791 6.70892 17.9553 7.90224 17.6904C7.99863 17.6684 8.09798 17.6568 8.19583 17.6407C8.31268 17.6407 8.42953 17.6407 8.54638 17.6407H8.54634ZM4.64649 15.6397C4.66545 15.4978 4.68009 15.3544 4.70492 15.2139C4.89625 14.1823 5.43378 13.376 6.28678 12.7688C6.8769 13.3292 7.57212 13.6248 8.38424 13.6233C9.19341 13.6233 9.88721 13.3307 10.4832 12.7658C10.6015 12.8595 10.7256 12.9487 10.8395 13.0497C11.5582 13.6892 11.9818 14.4866 12.0971 15.4451C12.1044 15.5095 12.1146 15.5753 12.1234 15.6397C12.1234 15.7173 12.1234 15.7963 12.1234 15.8739C9.63011 15.8739 7.13832 15.8739 4.64502 15.8739C4.64649 15.7963 4.64649 15.7173 4.64649 15.6397ZM8.56098 8.38181C8.70848 8.4111 8.85893 8.43009 9.00208 8.47106C9.87844 8.71544 10.527 9.49243 10.6175 10.4012C10.7432 11.661 9.82002 12.7673 8.55661 12.8712C7.41883 12.9663 6.3715 12.1541 6.17874 11.026C5.97134 9.82021 6.72356 8.6964 7.91688 8.43156C8.01326 8.40959 8.11262 8.39791 8.21047 8.38181C8.32732 8.38181 8.44417 8.38181 8.56102 8.38181H8.56098ZM43 8.2516V32.6647C43 34.6403 41.3855 36.2577 39.4189 36.2577H27.2346C27.2346 38.1628 28.6648 39.7802 28.6648 40.5617C28.6648 41.3487 28.0147 42 27.2346 42H15.7654C14.9798 42 14.3297 41.3487 14.3297 40.5617C14.3297 39.7313 15.7654 38.2062 15.7654 36.2523L3.58105 36.2577C1.609 36.2577 0 34.6403 0 32.6647V8.2516C0 6.27596 1.60904 4.66403 3.58105 4.66403H39.4189C41.3856 4.66403 43 6.276 43 8.2516ZM40.1341 32.2902V8.4524C40.1341 7.96395 39.7981 7.53515 39.4189 7.53515H3.58101C3.20177 7.53515 2.86586 7.96395 2.86586 8.4524V32.2902C2.86586 32.7786 3.20177 33.2074 3.58101 33.2074H39.4189C39.7981 33.2074 40.1341 32.7786 40.1341 32.2902ZM21.4963 3.93044C22.5797 3.93044 23.458 3.05067 23.458 1.96522C23.458 0.879771 22.5798 0 21.4963 0C20.4129 0 19.5347 0.879771 19.5347 1.96522C19.5347 3.05067 20.4129 3.93044 21.4963 3.93044ZM21.5054 0.449003C21.5884 0.449003 21.6563 0.51703 21.6563 0.600184C21.6563 0.683337 21.5884 0.751364 21.5054 0.751364C21.4224 0.751364 21.3545 0.683337 21.3545 0.600184C21.3545 0.51703 21.4224 0.449003 21.5054 0.449003ZM21.4963 1.05822C21.9958 1.05822 22.4017 1.46483 22.4017 1.96522C22.4017 2.46561 21.9958 2.87222 21.4963 2.87222C20.9968 2.87222 20.591 2.46561 20.591 1.96522C20.591 1.46483 20.9968 1.05822 21.4963 1.05822ZM21.4963 2.41876C21.7453 2.41876 21.949 2.21468 21.949 1.96522C21.949 1.71576 21.7453 1.51168 21.4963 1.51168C21.2473 1.51168 21.0436 1.71576 21.0436 1.96522C21.0436 2.21468 21.2473 2.41876 21.4963 2.41876ZM22.8046 3.81401C22.4349 4.07855 21.9822 4.23276 21.4963 4.23276C21.0104 4.23276 20.5578 4.07855 20.1881 3.81401L19.8305 4.37637C19.7022 4.57743 19.8471 4.84046 20.084 4.84046H22.9087C23.1456 4.84046 23.2905 4.57743 23.1622 4.37637L22.8046 3.81401Z" fill="#2A9CC8"/>
</svg>
