<svg width="42" height="36" viewBox="0 0 42 36" fill="none" xmlns="http://www.w3.org/2000/svg">
<path d="M41.6 12.46V29.89C41.5844 31.3544 40.9957 32.7545 39.9601 33.7901C38.9245 34.8257 37.5244 35.4144 36.06 35.43H5.93997C5.20535 35.4452 4.47561 35.3073 3.79725 35.0249C3.11889 34.7426 2.50679 34.322 1.99997 33.79C1.47297 33.2878 1.0553 32.6821 0.773105 32.0111C0.490911 31.34 0.350264 30.6179 0.359967 29.89V6.10999C0.350264 5.38206 0.490911 4.65997 0.773105 3.9889C1.0553 3.31783 1.47297 2.71222 1.99997 2.20999C2.5022 1.68299 3.10781 1.26532 3.77888 0.983127C4.44995 0.700933 5.17204 0.560286 5.89997 0.569989H13.84C14.5679 0.560286 15.29 0.700933 15.9611 0.983127C16.6321 1.26532 17.2377 1.68299 17.74 2.20999C18.2683 2.71173 18.6875 3.31701 18.9714 3.98804C19.2553 4.65906 19.3978 5.38142 19.39 6.10999V6.90999H36.06C37.5261 6.92564 38.9277 7.51571 39.9636 8.55344C40.9994 9.59118 41.587 10.9938 41.6 12.46Z" fill="#E13A3A"/>
</svg>
