<svg width="48" height="32" viewBox="0 0 48 32" fill="none" xmlns="http://www.w3.org/2000/svg">
<path d="M9.17996 13.18C9.35853 13.1647 9.52444 13.0815 9.64351 12.9476C9.76257 12.8136 9.82573 12.6391 9.81996 12.46C9.82267 12.3747 9.80806 12.2898 9.77698 12.2104C9.74591 12.131 9.69903 12.0587 9.63919 11.9979C9.57935 11.9371 9.50779 11.8891 9.42885 11.8568C9.34991 11.8245 9.26524 11.8086 9.17996 11.81H5.17996C4.99923 11.8044 4.82333 11.8689 4.68912 11.9901C4.55491 12.1112 4.47278 12.2796 4.45996 12.46C4.47176 12.6471 4.5514 12.8234 4.68396 12.956C4.81651 13.0885 4.99287 13.1682 5.17996 13.18H9.17996ZM9.17996 16.08C9.34737 16.0597 9.50158 15.9789 9.61343 15.8526C9.72528 15.7264 9.78704 15.5636 9.78704 15.395C9.78704 15.2264 9.72528 15.0635 9.61343 14.9373C9.50158 14.8111 9.34737 14.7303 9.17996 14.71H5.17996C5.08305 14.6983 4.98476 14.7072 4.89158 14.7363C4.7984 14.7654 4.71244 14.8139 4.63939 14.8786C4.56634 14.9433 4.50786 15.0229 4.4678 15.1119C4.42775 15.2009 4.40704 15.2974 4.40704 15.395C4.40704 15.4926 4.42775 15.5891 4.4678 15.6781C4.50786 15.7671 4.56634 15.8466 4.63939 15.9114C4.71244 15.9761 4.7984 16.0246 4.89158 16.0537C4.98476 16.0828 5.08305 16.0917 5.17996 16.08H9.17996ZM17.64 16.65C19.8182 16.6069 21.9815 17.0177 23.9924 17.8561C26.0032 18.6945 27.8175 19.9423 29.32 21.52V6.37999C27.8484 8.01056 26.0444 9.3068 24.0297 10.1814C22.0149 11.0559 19.836 11.4885 17.64 11.45V16.65ZM37.64 7.78999L36.31 6.41999L41.83 0.939991L43.2 2.22999L37.64 7.78999ZM38.64 14.79V12.9H47.9V14.83L38.64 14.79ZM36.3 21.68L37.63 20.31L43.19 25.87L41.84 27.2L36.3 21.68ZM31.17 0.939991C31.3555 0.933321 31.5405 0.963613 31.7142 1.0291C31.8879 1.09459 32.0468 1.19397 32.1817 1.32146C32.3167 1.44895 32.4249 1.602 32.5001 1.77171C32.5754 1.94142 32.6161 2.1244 32.62 2.30999V25.55C32.6148 25.7352 32.5732 25.9175 32.4975 26.0866C32.4218 26.2557 32.3135 26.4082 32.1789 26.5355C32.0442 26.6627 31.8858 26.7621 31.7127 26.8281C31.5396 26.8941 31.3551 26.9253 31.17 26.92C30.9867 26.9253 30.8042 26.8939 30.6334 26.8274C30.4625 26.761 30.3067 26.6609 30.1753 26.5331C30.0438 26.4054 29.9393 26.2526 29.8679 26.0837C29.7966 25.9148 29.7599 25.7333 29.76 25.55C27.38 22.65 23.23 18.9 17 18.9H14.41L20.05 28.41L16.63 30.9C16.2274 31.0541 15.7845 31.0668 15.3738 30.936C14.9631 30.8051 14.6091 30.5385 14.37 30.18L7.36996 18.9H3.57996C3.57996 18.9 0.0799561 17 0.0799561 14C0.0799561 11 3.57996 9.24999 3.57996 9.24999H17C23.24 9.24999 27.39 5.37999 29.77 2.31999C29.7685 2.13627 29.8042 1.95415 29.8751 1.78463C29.9459 1.61511 30.0504 1.4617 30.1822 1.33367C30.314 1.20564 30.4703 1.10563 30.6418 1.03969C30.8133 0.973742 30.9964 0.94323 31.18 0.949991L31.17 0.939991Z" fill="#1A22A2"/>
</svg>
