<svg width="42" height="44" viewBox="0 0 42 44" fill="none" xmlns="http://www.w3.org/2000/svg">
<path d="M20.45 18.32C20.4587 18.9477 20.334 19.5701 20.084 20.1459C19.834 20.7217 19.4645 21.2378 19 21.66C18.0298 22.5775 16.7453 23.0891 15.41 23.09C14.1039 23.1201 12.8379 22.6378 11.8829 21.7464C10.9279 20.8549 10.3597 19.6251 10.3 18.32C10.2949 17.6804 10.4281 17.0472 10.6905 16.4638C10.9528 15.8805 11.3381 15.3607 11.82 14.94C12.8016 14.0455 14.0819 13.5497 15.41 13.5497C16.7381 13.5497 18.0183 14.0455 19 14.94C19.4783 15.3598 19.8567 15.8811 20.1075 16.4659C20.3584 17.0507 20.4754 17.6842 20.45 18.32ZM32.27 18.32C32.2749 18.949 32.1465 19.5719 31.8931 20.1476C31.6397 20.7233 31.2672 21.2388 30.8 21.66C29.8276 22.574 28.5446 23.0851 27.21 23.09C26.5466 23.1018 25.8876 22.9814 25.2713 22.7358C24.6549 22.4903 24.0936 22.1246 23.62 21.66C23.1538 21.2351 22.7787 20.72 22.5174 20.1459C22.2561 19.5718 22.1141 18.9506 22.1 18.32C22.0922 17.68 22.2242 17.0459 22.4868 16.4622C22.7493 15.8784 23.136 15.3589 23.62 14.94C24.5903 14.0273 25.8781 13.5287 27.21 13.55C28.5431 13.5222 29.8332 14.0218 30.8 14.94C31.2702 15.3673 31.6444 15.8896 31.8978 16.4722C32.1512 17.0549 32.2781 17.6847 32.27 18.32ZM37.59 22.54V6.83001C37.6838 5.80106 37.4149 4.7717 36.83 3.92001C36.4856 3.59357 36.0722 3.34862 35.6205 3.20323C35.1688 3.05785 34.6902 3.01574 34.22 3.08001H7.99999C7.52524 3.01732 7.04259 3.05622 6.58401 3.19414C6.12543 3.33206 5.7014 3.56584 5.33999 3.88001C4.78255 4.77612 4.52998 5.82852 4.61999 6.88001V22.71C5.29496 23.0807 6.00097 23.3919 6.72999 23.64C7.45999 23.89 8.09999 24.12 8.62999 24.32C9.24647 24.5276 9.88345 24.6684 10.53 24.74C11.26 24.82 11.83 24.91 12.22 24.99C12.7645 25.0851 13.3184 25.1153 13.87 25.08C14.3182 25.0233 14.7718 25.0233 15.22 25.08C15.6845 25.1316 16.1544 25.1046 16.61 25C17.31 24.89 17.66 24.88 17.66 25C18.4598 24.9154 19.2616 25.1409 19.9 25.63C19.9568 25.7148 20.0279 25.7893 20.11 25.85C20.54 26.24 21.01 26.65 21.55 27.07C21.6567 25.63 22.5867 24.94 24.34 25H25.22H26.22H27.27C27.6922 25.0443 28.1178 25.0443 28.54 25C28.9691 24.9603 29.4009 24.9603 29.83 25C30.3148 25.007 30.7976 24.9361 31.26 24.79C31.7413 24.6381 32.2374 24.5375 32.74 24.49C33.2873 24.4318 33.8176 24.2652 34.3 24C34.8137 23.7355 35.3532 23.5243 35.91 23.37C36.5176 23.1927 37.0872 22.9046 37.59 22.52V22.54ZM41.44 22.46C39.0412 25.1236 36.0219 27.1537 32.65 28.37C33.98 32.84 33.79 36.5 32.11 39.37C31.6594 40.2056 31.0458 40.9423 30.3055 41.5366C29.5652 42.1309 28.7132 42.5707 27.8 42.83C27.1075 43.0932 26.3652 43.1992 25.6267 43.1404C24.8883 43.0816 24.1721 42.8595 23.53 42.49C22.8677 42.0984 22.3324 41.524 21.9883 40.8358C21.6442 40.1476 21.5059 39.3748 21.59 38.61V30.92L21 30.78L20.45 30.65V38.59C20.534 39.3548 20.3957 40.1276 20.0516 40.8158C19.7075 41.504 19.1723 42.0784 18.51 42.47C17.8594 42.8363 17.1368 43.0565 16.3925 43.1152C15.6482 43.1739 14.9 43.0698 14.2 42.81C12.3569 42.2595 10.807 41.0009 9.88999 39.31C8.26332 36.4567 8.09666 32.81 9.38999 28.37C6.01812 27.1537 2.99875 25.1236 0.599989 22.46C0.412943 22.255 0.302745 21.9915 0.288159 21.7143C0.273572 21.4372 0.355499 21.1635 0.519989 20.94C0.859989 20.52 1.31999 20.53 1.90999 20.94C2.01317 20.9909 2.11333 21.0476 2.20999 21.11C2.29938 21.1572 2.38323 21.2142 2.45999 21.28V5.00001C2.44216 3.92224 2.83548 2.87813 3.55999 2.08001C3.8908 1.69111 4.3059 1.38272 4.77374 1.17825C5.24158 0.973788 5.74987 0.878632 6.25999 0.900011H35.86C36.3676 0.896391 36.8703 0.999576 37.3355 1.20287C37.8006 1.40616 38.2178 1.70501 38.56 2.08001C38.9278 2.4678 39.2117 2.92722 39.3941 3.42961C39.5765 3.932 39.6534 4.46659 39.62 5.00001V21.32L40.13 20.98C40.72 20.56 41.13 20.54 41.52 20.98C41.91 21.42 41.83 21.88 41.44 22.5V22.46Z" fill="#46BFAF"/>
</svg>
