<svg width="40" height="44" viewBox="0 0 40 44" fill="none" xmlns="http://www.w3.org/2000/svg">
<path d="M0.729983 13.77V13.52C0.729983 13.3052 0.815322 13.0992 0.967227 12.9472C1.11913 12.7953 1.32516 12.71 1.53998 12.71H4.99998C5.21481 12.71 5.42084 12.7953 5.57274 12.9472C5.72464 13.0992 5.80998 13.3052 5.80998 13.52V13.77C5.80999 13.8759 5.78897 13.9808 5.74814 14.0785C5.70732 14.1762 5.64749 14.2648 5.57214 14.3393C5.49679 14.4137 5.40742 14.4724 5.3092 14.512C5.21098 14.5516 5.10588 14.5713 4.99998 14.57H1.53998C1.43409 14.5713 1.32898 14.5516 1.23076 14.512C1.13255 14.4724 1.04317 14.4137 0.967822 14.3393C0.892473 14.2648 0.83265 14.1762 0.791822 14.0785C0.750994 13.9808 0.729975 13.8759 0.729983 13.77ZM1.53998 6.08H4.99998C5.21481 6.08 5.42084 5.99467 5.57274 5.84276C5.72464 5.69086 5.80998 5.48483 5.80998 5.27001V5C5.80999 4.8941 5.78897 4.78925 5.74814 4.69153C5.70732 4.59381 5.64749 4.50517 5.57214 4.43075C5.49679 4.35634 5.40742 4.29762 5.3092 4.25801C5.21098 4.2184 5.10588 4.19868 4.99998 4.2H1.53998C1.43409 4.19868 1.32898 4.2184 1.23076 4.25801C1.13255 4.29762 1.04317 4.35634 0.967822 4.43075C0.892473 4.50517 0.83265 4.59381 0.791822 4.69153C0.750994 4.78925 0.729975 4.8941 0.729983 5V5.25C0.727315 5.35805 0.746294 5.46553 0.785804 5.56612C0.825314 5.66672 0.884555 5.75839 0.960038 5.83573C1.03552 5.91308 1.12572 5.97454 1.22532 6.01649C1.32492 6.05844 1.43191 6.08004 1.53998 6.08ZM1.53998 22.93H4.99998C5.10588 22.9313 5.21098 22.9116 5.3092 22.872C5.40742 22.8324 5.49679 22.7737 5.57214 22.6993C5.64749 22.6248 5.70732 22.5362 5.74814 22.4385C5.78897 22.3408 5.80999 22.2359 5.80998 22.13V21.88C5.80998 21.6652 5.72464 21.4592 5.57274 21.3072C5.42084 21.1553 5.21481 21.07 4.99998 21.07H1.53998C1.32516 21.07 1.11913 21.1553 0.967227 21.3072C0.815322 21.4592 0.729983 21.6652 0.729983 21.88V22.13C0.729975 22.2359 0.750994 22.3408 0.791822 22.4385C0.83265 22.5362 0.892473 22.6248 0.967822 22.6993C1.04317 22.7737 1.13255 22.8324 1.23076 22.872C1.32898 22.9116 1.43409 22.9313 1.53998 22.93ZM1.53998 31.34H4.99998C5.10588 31.3413 5.21098 31.3216 5.3092 31.282C5.40742 31.2424 5.49679 31.1837 5.57214 31.1093C5.64749 31.0348 5.70732 30.9462 5.74814 30.8485C5.78897 30.7508 5.80999 30.6459 5.80998 30.54V30.29C5.80998 30.0752 5.72464 29.8692 5.57274 29.7172C5.42084 29.5653 5.21481 29.48 4.99998 29.48H1.53998C1.32516 29.48 1.11913 29.5653 0.967227 29.7172C0.815322 29.8692 0.729983 30.0752 0.729983 30.29V30.54C0.729975 30.6459 0.750994 30.7508 0.791822 30.8485C0.83265 30.9462 0.892473 31.0348 0.967822 31.1093C1.04317 31.1837 1.13255 31.2424 1.23076 31.282C1.32898 31.3216 1.43409 31.3413 1.53998 31.34ZM5.77998 39V38.75C5.76531 38.5508 5.67756 38.3641 5.53359 38.2257C5.38962 38.0872 5.19959 38.0069 4.99998 38H1.53998C1.43361 38 1.32828 38.021 1.23001 38.0617C1.13174 38.1024 1.04244 38.162 0.967227 38.2372C0.892011 38.3125 0.832347 38.4018 0.791641 38.5C0.750934 38.5983 0.729983 38.7036 0.729983 38.81V39C0.729975 39.1059 0.750994 39.2108 0.791822 39.3085C0.83265 39.4062 0.892473 39.4948 0.967822 39.5693C1.04317 39.6437 1.13255 39.7024 1.23076 39.742C1.32898 39.7816 1.43409 39.8013 1.53998 39.8H4.99998C5.20867 39.7948 5.40705 39.7082 5.55278 39.5587C5.69851 39.4093 5.78005 39.2088 5.77998 39ZM34.67 2V42C34.67 42.3086 34.5481 42.6047 34.3308 42.8238C34.1136 43.0429 33.8186 43.1674 33.51 43.17H4.91998C4.76089 43.1781 4.6018 43.1539 4.45231 43.0989C4.30281 43.0438 4.16601 42.9591 4.05014 42.8498C3.93428 42.7405 3.84175 42.6088 3.77813 42.4628C3.71451 42.3167 3.68113 42.1593 3.67998 42V40.34C4.06941 40.37 4.46056 40.37 4.84998 40.34C5.17433 40.3746 5.5011 40.3025 5.7808 40.1347C6.0605 39.9669 6.27787 39.7125 6.39998 39.41C6.49088 39.1883 6.52543 38.9476 6.50055 38.7093C6.47568 38.4711 6.39215 38.2426 6.25743 38.0445C6.12272 37.8464 5.94101 37.6848 5.72856 37.5741C5.51611 37.4633 5.27954 37.407 5.03998 37.41H3.67998V31.86H5.09998C5.40599 31.8832 5.71119 31.8059 5.96927 31.6398C6.22735 31.4738 6.42421 31.2281 6.52998 30.94C6.6129 30.7202 6.63831 30.4828 6.60381 30.2504C6.5693 30.0179 6.47602 29.7982 6.33281 29.6119C6.18959 29.4256 6.00119 29.279 5.78544 29.1859C5.5697 29.0928 5.33376 29.0564 5.09998 29.08H3.67998V23.45H4.41998C5.95998 23.45 6.57998 23.01 6.57998 22.02C6.57998 21.03 5.90998 20.66 4.41998 20.66H3.67998V15.14H5.09998C5.49342 15.1374 5.86984 14.9792 6.14711 14.7001C6.42438 14.4209 6.57999 14.0435 6.57998 13.65C6.58145 13.4571 6.54387 13.2659 6.4695 13.0879C6.39513 12.9099 6.28551 12.7487 6.14724 12.6142C6.00897 12.4797 5.84491 12.3745 5.66493 12.305C5.48496 12.2356 5.29278 12.2033 5.09998 12.21H3.67998V6.56001C4.13282 6.52999 4.58715 6.52999 5.03998 6.56001C5.31289 6.57425 5.58442 6.51265 5.82447 6.38203C6.06452 6.25142 6.26371 6.05689 6.39998 5.82C6.51544 5.60518 6.571 5.36327 6.56086 5.1196C6.55071 4.87593 6.47523 4.63947 6.34232 4.43499C6.20941 4.2305 6.02395 4.06553 5.80539 3.95733C5.58682 3.84914 5.34318 3.8017 5.09998 3.82H3.67998V2.05C3.68998 1.74288 3.81645 1.45105 4.03374 1.23377C4.25103 1.01648 4.54285 0.890001 4.84998 0.880005H33.5C33.8071 0.890001 34.0989 1.01648 34.3162 1.23377C34.5335 1.45105 34.66 1.74288 34.67 2.05V2ZM27 13.37H13V16.05H27V13.37ZM27 9.12H13V11.8H27V9.12ZM37.7 34.5H36.22C35.74 34.5 35.35 35.05 35.35 35.71V40.3C35.35 40.96 35.74 41.5 36.22 41.5H37.7C38.56 41.5 39.27 40.5 39.27 39.32V36.68C39.27 35.48 38.56 34.5 37.7 34.5ZM37.7 26.57H36.22C35.74 26.57 35.35 27.11 35.35 27.78V32.36C35.35 33.03 35.74 33.57 36.22 33.57H37.7C38.56 33.57 39.27 32.57 39.27 31.39V28.75C39.27 27.55 38.56 26.57 37.7 26.57ZM37.7 18.64H36.22C35.74 18.64 35.35 19.18 35.35 19.84V24.43C35.35 25.09 35.74 25.63 36.22 25.63H37.7C38.56 25.63 39.27 24.63 39.27 23.45V20.82C39.27 19.61 38.56 18.64 37.7 18.64ZM37.7 10.7H36.22C35.74 10.7 35.35 11.24 35.35 11.91V16.49C35.35 17.16 35.74 17.7 36.22 17.7H37.7C38.56 17.7 39.27 16.7 39.27 15.52V12.88C39.27 11.68 38.56 10.7 37.7 10.7ZM37.7 2.77H36.22C35.74 2.77 35.35 3.31 35.35 3.98V8.56001C35.35 9.23001 35.74 9.77001 36.22 9.77001H37.7C38.56 9.77001 39.27 8.77 39.27 7.59V5C39.27 3.8 38.56 2.82 37.7 2.82V2.77Z" fill="#2A9CC8"/>
</svg>
