<svg width="50" height="50" viewBox="0 0 50 50" fill="none" xmlns="http://www.w3.org/2000/svg">
<path d="M37.554 10.9793C38.8872 10.9793 39.968 9.89851 39.968 8.56534C39.968 7.23217 38.8872 6.15143 37.554 6.15143C36.2209 6.15143 35.1401 7.23217 35.1401 8.56534C35.1401 9.89851 36.2209 10.9793 37.554 10.9793Z" fill="#ECBE30"/>
<path d="M44.706 13.7743L45.4187 13.3657C46.2556 12.8858 46.1222 11.6396 45.2029 11.3474L41.3441 10.1221C40.7001 9.91744 40.0253 10.3313 39.9148 10.9982L39.2878 14.7956C39.1355 15.7175 40.1221 16.4027 40.9328 15.9378L42.1771 15.2245C44.0823 18.3093 45.0885 21.8491 45.0885 25.5013C45.0885 36.3018 36.3012 45.0892 25.5007 45.0892C14.7002 45.0892 5.91278 36.3018 5.91278 25.5007C5.91278 14.6995 14.7002 5.91278 25.5007 5.91278C27.6916 5.91278 29.8427 6.27173 31.8937 6.97916C32.6535 7.24135 33.4825 6.83794 33.7447 6.07754C34.0069 5.31715 33.6035 4.48875 32.8431 4.22592C30.486 3.41256 28.0153 3 25.5 3C13.0937 3 3 13.0931 3 25.5C3 37.9069 13.0931 48 25.5 48C37.9069 48 48 37.9069 48 25.5C48 21.3371 46.863 17.2991 44.7054 13.773L44.706 13.7743Z" fill="#ECBE30"/>
<path d="M23.7118 41.0361C23.8216 41.9273 24.5611 42.6066 25.4307 42.64C26.3493 42.6753 27.1718 41.9796 27.2895 41.0361H23.7124H23.7118Z" fill="#ECBE30"/>
<path d="M20.9064 36.0854H29.9259C29.9272 35.544 29.9592 35.0046 30.0167 34.4691H20.9064V36.0854Z" fill="#ECBE30"/>
<path d="M20.9064 38.3103C20.9064 39.5153 21.8832 40.4921 23.0882 40.4921H27.7918C28.97 40.4921 29.9252 39.5369 29.9252 38.3587V37.6369H20.9064V38.3103Z" fill="#ECBE30"/>
<path d="M35.14 20.9657C35.14 15.5076 30.6509 11.0982 25.1634 11.2277C19.9249 11.3513 15.6836 15.6783 15.6587 20.918C15.6463 23.498 16.6375 25.8459 18.2649 27.5942C19.6399 29.0725 20.5016 30.9378 20.7932 32.917H30.2665C30.7274 30.7763 31.6519 28.7508 33.0282 27.0201C34.3502 25.3581 35.14 23.2541 35.14 20.9651V20.9657ZM24.7482 14.8361C24.2519 14.9185 21.702 15.4494 20.2211 17.8529C18.9651 19.8908 19.2443 21.9465 19.4221 22.7356C19.4993 23.0769 19.2848 23.4156 18.9442 23.4928C18.8971 23.5032 18.8501 23.5084 18.8043 23.5084C18.5146 23.5084 18.2538 23.309 18.1877 23.0148C17.9752 22.074 17.6431 19.6241 19.1436 17.1892C20.8678 14.3909 23.7119 13.7253 24.5422 13.588C24.8881 13.5311 25.2131 13.7645 25.2699 14.1091C25.3268 14.4543 25.0941 14.7799 24.7488 14.8368L24.7482 14.8361Z" fill="#ECBE30"/>
</svg>
