<svg width="42" height="42" viewBox="0 0 42 42" fill="none" xmlns="http://www.w3.org/2000/svg">
<path d="M27.65 21C27.6648 20.1259 27.5022 19.2579 27.1722 18.4484C26.8422 17.6389 26.3516 16.9046 25.73 16.29C25.1285 15.6457 24.3985 15.1348 23.5872 14.7903C22.7759 14.4458 21.9013 14.2753 21.02 14.29C20.1374 14.2764 19.2616 14.4473 18.4488 14.7917C17.6361 15.1361 16.9042 15.6464 16.3 16.29C15.0374 17.5342 14.3183 19.2274 14.3 21C14.279 21.8822 14.4465 22.7587 14.7914 23.5709C15.1363 24.3832 15.6506 25.1125 16.3 25.71C16.9166 26.3337 17.6508 26.8289 18.4602 27.1669C19.2695 27.5049 20.1379 27.6789 21.015 27.6789C21.8921 27.6789 22.7604 27.5049 23.5698 27.1669C24.3791 26.8289 25.1134 26.3337 25.73 25.71C26.3755 25.1135 26.882 24.3824 27.2138 23.5685C27.5455 22.7546 27.6945 21.8778 27.65 21ZM41 18.15V23.94C41.0051 24.1586 40.9383 24.3729 40.81 24.55C40.7541 24.6379 40.6794 24.7123 40.5912 24.7676C40.5029 24.823 40.4035 24.858 40.3 24.87L35.44 25.62C35.176 26.4407 34.8414 27.237 34.44 28C35.04 28.84 35.95 30 37.2 31.6C37.284 31.6765 37.352 31.769 37.4 31.872C37.4481 31.975 37.4753 32.0864 37.48 32.2C37.4776 32.4259 37.3922 32.643 37.24 32.81C36.457 33.8209 35.6014 34.7734 34.68 35.66C33.43 36.9 32.61 37.51 32.2 37.48C31.9651 37.4704 31.7386 37.3902 31.55 37.25L28 34.44C27.238 34.8508 26.4375 35.1857 25.61 35.44C25.4503 37.072 25.2033 38.6944 24.87 40.3C24.8355 40.5199 24.7198 40.7189 24.5458 40.8578C24.3718 40.9966 24.1521 41.0652 23.93 41.05H18.13C17.8882 41.0524 17.6537 40.9672 17.47 40.81C17.3825 40.7453 17.3115 40.6609 17.2628 40.5636C17.2142 40.4663 17.1892 40.3588 17.19 40.25L16.44 35.44C15.6371 35.1714 14.8578 34.8369 14.11 34.44L10.42 37.25C10.2374 37.4013 10.0071 37.4828 9.76999 37.48C9.64798 37.4821 9.52692 37.4582 9.41485 37.41C9.30278 37.3617 9.20227 37.2901 9.11999 37.2C7.56801 35.8578 6.12977 34.3894 4.81999 32.81C4.69166 32.6329 4.62492 32.4186 4.62999 32.2C4.64076 31.9907 4.72586 31.7921 4.86999 31.64C5.11999 31.27 5.54999 30.64 6.16999 29.92C6.78999 29.2 7.25999 28.52 7.57999 28.05C7.13272 27.2327 6.77081 26.3715 6.49999 25.48L1.73999 24.78C1.63544 24.7675 1.53512 24.7313 1.44672 24.6741C1.35832 24.6169 1.28419 24.5403 1.22999 24.45C1.10114 24.2732 1.01863 24.0669 0.98999 23.85V18.06C0.99238 17.8341 1.07781 17.617 1.22999 17.45C1.3433 17.295 1.50523 17.1823 1.68999 17.13L6.54999 16.38C6.80833 15.5572 7.14313 14.7604 7.54999 14C6.82999 13 5.89999 11.8 4.73999 10.4C4.57054 10.2247 4.47097 9.99355 4.45999 9.74999C4.47979 9.54291 4.56369 9.34715 4.69999 9.18999C5.49336 8.20048 6.35193 7.26506 7.26999 6.38999C8.50999 5.13999 9.32999 4.51999 9.73999 4.51999C9.98986 4.5318 10.2318 4.6113 10.44 4.74999L14.03 7.55999C14.7723 7.14467 15.5568 6.80945 16.37 6.55999C16.5232 4.92401 16.7872 3.30029 17.16 1.69999C17.1968 1.47904 17.3194 1.28156 17.501 1.15048C17.6827 1.01941 17.9087 0.965322 18.13 0.999994H23.91C24.1359 1.00238 24.353 1.08781 24.52 1.23999C24.6094 1.30673 24.6847 1.39063 24.7414 1.48678C24.798 1.58293 24.8349 1.68941 24.85 1.79999L25.55 6.60999C26.3626 6.86816 27.1576 7.17882 27.93 7.53999L31.62 4.77999C31.699 4.70276 31.793 4.64251 31.8962 4.60295C31.9994 4.5634 32.1096 4.54538 32.22 4.54999C32.4583 4.55762 32.6886 4.63787 32.88 4.77999C34.4289 6.14035 35.8637 7.62531 37.17 9.21999C37.2999 9.377 37.3676 9.57633 37.36 9.77999C37.3651 9.99863 37.2983 10.2129 37.17 10.39C36.89 10.76 36.44 11.39 35.82 12.11C35.2 12.83 34.73 13.51 34.42 13.98C34.8542 14.7849 35.2124 15.6286 35.49 16.5L40.25 17.25C40.3606 17.265 40.4671 17.302 40.5632 17.3586C40.6594 17.4153 40.7432 17.4905 40.81 17.58C40.885 17.6591 40.9411 17.7542 40.974 17.8581C41.0069 17.9621 41.0158 18.0721 41 18.18V18.15Z" fill="#4A4A4A"/>
</svg>
