<svg width="44" height="40" viewBox="0 0 44 40" fill="none" xmlns="http://www.w3.org/2000/svg">
<path d="M20.59 20C20.5874 21.5012 19.9905 22.9404 18.9299 24.0028C17.8693 25.0653 16.4312 25.6647 14.93 25.67C13.427 25.6673 11.9864 25.0691 10.9236 24.0064C9.86087 22.9436 9.26265 21.503 9.26001 20C9.26265 18.497 9.86087 17.0564 10.9236 15.9936C11.9864 14.9309 13.427 14.3326 14.93 14.33C16.4312 14.3353 17.8693 14.9347 18.9299 15.9971C19.9905 17.0596 20.5874 18.4988 20.59 20ZM37.59 8.66999C37.5873 9.04479 37.5088 9.41517 37.3593 9.75887C37.2098 10.1026 36.9924 10.4125 36.72 10.67C36.4667 10.945 36.1566 11.1617 35.8113 11.305C35.466 11.4483 35.0936 11.5148 34.72 11.5C33.9733 11.482 33.2601 11.186 32.72 10.67C32.4394 10.4211 32.219 10.1118 32.0752 9.76536C31.9314 9.41894 31.8681 9.04442 31.89 8.66999C31.8978 7.92621 32.196 7.21493 32.721 6.68804C33.246 6.16115 33.9563 5.86039 34.7 5.84999C35.0724 5.85049 35.441 5.92501 35.7843 6.06922C36.1277 6.21342 36.4389 6.42443 36.7 6.68999C36.9909 6.93352 37.2223 7.24032 37.3766 7.58694C37.5308 7.93356 37.6038 8.31085 37.59 8.68999V8.66999ZM37.59 31.33C37.5965 31.7062 37.5222 32.0794 37.3721 32.4244C37.222 32.7694 36.9996 33.0783 36.72 33.33C36.4629 33.6024 36.153 33.8194 35.809 33.9677C35.4651 34.116 35.0945 34.1925 34.72 34.1925C34.3455 34.1925 33.9749 34.116 33.631 33.9677C33.2871 33.8194 32.9771 33.6024 32.72 33.33C32.44 33.0806 32.2199 32.7712 32.0762 32.4249C31.9325 32.0786 31.8688 31.7043 31.89 31.33C31.8852 30.9577 31.9564 30.5884 32.0991 30.2445C32.2418 29.9007 32.453 29.5895 32.72 29.33C32.9784 29.0616 33.2894 28.8494 33.6335 28.7066C33.9776 28.5637 34.3475 28.4934 34.72 28.5C35.4699 28.5028 36.1885 28.801 36.72 29.33C37.006 29.5809 37.2325 29.8924 37.383 30.2418C37.5335 30.5912 37.6042 30.9698 37.59 31.35V31.33ZM29.07 22V18C29.0704 17.839 29.0137 17.6831 28.91 17.56C28.8366 17.4496 28.7269 17.3683 28.6 17.33L25.15 16.77C24.9592 16.1981 24.7218 15.6429 24.44 15.11C24.94 14.39 25.6 13.55 26.44 12.57C26.5335 12.4412 26.5889 12.2887 26.6 12.13C26.6057 11.9711 26.5482 11.8165 26.44 11.7C25.8869 10.9865 25.2783 10.3177 24.62 9.69999C23.72 8.82999 23.15 8.38999 22.91 8.38999C22.7392 8.38502 22.5723 8.44183 22.44 8.54999L19.9 10.55C19.3611 10.2617 18.7907 10.0369 18.2 9.87999C18.1093 8.71905 17.9355 7.5661 17.68 6.42999C17.6491 6.27746 17.5645 6.14109 17.4415 6.04566C17.3186 5.95024 17.1654 5.9021 17.01 5.90999H12.87C12.7096 5.91282 12.5548 5.96913 12.43 6.06999C12.3685 6.11709 12.3185 6.17759 12.2838 6.2469C12.2492 6.31621 12.2308 6.3925 12.23 6.46999L11.72 9.83999C11.1423 10.0237 10.5831 10.2614 10.05 10.55L7.44001 8.54999C7.38181 8.49421 7.31263 8.45117 7.23687 8.42362C7.16111 8.39607 7.08044 8.38462 7.00001 8.38999C6.8301 8.39071 6.66507 8.44689 6.53001 8.54999C4.41001 10.55 3.36001 11.72 3.36001 12.11C3.36272 12.2566 3.41567 12.3978 3.51001 12.51C3.65001 12.72 3.95001 13.12 4.43001 13.7C4.91001 14.28 5.24001 14.7 5.43001 15.05C5.106 15.6298 4.83812 16.2392 4.63001 16.87L1.27001 17.38C1.13309 17.4102 1.00798 17.4797 0.910008 17.58C0.854225 17.6382 0.811187 17.7074 0.783638 17.7831C0.756089 17.8589 0.744636 17.9396 0.750008 18.02V22.14C0.755514 22.2878 0.812052 22.4292 0.910008 22.54C0.95164 22.6004 1.00494 22.6519 1.06676 22.6914C1.12859 22.7309 1.19769 22.7576 1.27001 22.77L4.67001 23.33C4.86001 23.83 5.10001 24.39 5.39001 24.99C4.88001 25.71 4.22001 26.55 3.39001 27.53C3.2923 27.6565 3.23638 27.8103 3.23001 27.97C3.22504 28.1408 3.28185 28.3077 3.39001 28.44C3.94926 29.1296 4.5575 29.7779 5.21001 30.38C6.11001 31.25 6.69001 31.69 6.95001 31.69C7.12265 31.6873 7.29025 31.6314 7.43001 31.53L9.96001 29.53C10.5099 29.8125 11.0818 30.0499 11.67 30.24C11.7613 31.387 11.9317 32.5264 12.18 33.65C12.2 33.802 12.2775 33.9407 12.3965 34.0374C12.5155 34.1341 12.6671 34.1815 12.82 34.17H17C17.1574 34.1673 17.3091 34.1108 17.43 34.01C17.5582 33.9123 17.6441 33.7691 17.67 33.61L18.19 30.24C18.7576 30.0539 19.3122 29.83 19.85 29.57L22.43 31.51C22.5623 31.6181 22.7292 31.675 22.9 31.67C23.0613 31.6722 23.2178 31.6153 23.34 31.51C25.48 29.51 26.55 28.3233 26.55 27.95C26.5429 27.8025 26.4866 27.6617 26.39 27.55C26.2 27.31 25.89 26.91 25.44 26.36C25.076 25.9335 24.7419 25.4824 24.44 25.01C24.7301 24.4206 24.9806 23.8126 25.19 23.19L28.56 22.71C28.6989 22.674 28.8219 22.5932 28.91 22.48C29.0021 22.3505 29.0574 22.1984 29.07 22.04V22ZM43.22 10.23V7.13999C43.22 6.89999 42.12 6.67999 39.93 6.46999C39.7655 6.06343 39.5541 5.67747 39.3 5.31999C39.8016 4.35616 40.1748 3.33077 40.41 2.26999C40.408 2.23933 40.3999 2.20937 40.3862 2.18189C40.3725 2.15441 40.3534 2.12996 40.33 2.10999C38.53 1.04999 37.62 0.519989 37.59 0.519989C37.56 0.519989 37.12 0.879989 36.59 1.58999C36.06 2.29999 35.65 2.79999 35.44 3.05999C34.9949 3.00664 34.5451 3.00664 34.1 3.05999C33.7421 2.55063 33.3582 2.05999 32.95 1.58999C32.6507 1.20298 32.3159 0.844756 31.95 0.519989C31.95 0.519989 31.01 1.04999 29.21 2.10999C29.13 2.10999 29.09 2.20999 29.09 2.26999C29.338 3.33266 29.7247 4.35811 30.24 5.31999C29.9807 5.68117 29.7563 6.06625 29.57 6.46999C27.38 6.67999 26.28 6.89999 26.28 7.13999V10.23C26.28 10.47 27.38 10.71 29.57 10.95C29.7452 11.3563 29.9703 11.7392 30.24 12.09C29.7239 13.055 29.3372 14.0839 29.09 15.15C29.09 15.2033 29.13 15.2533 29.21 15.3L29.97 15.74C30.41 16 30.85 16.26 31.27 16.49C31.4891 16.6238 31.7162 16.744 31.95 16.85C32.05 16.85 32.38 16.51 32.95 15.85C33.52 15.19 33.88 14.66 34.1 14.34C34.41 14.34 34.64 14.34 34.77 14.34C34.9 14.34 35.13 14.34 35.44 14.34C36.0375 15.2264 36.7064 16.0625 37.44 16.84H37.6C37.66 16.84 38.6 16.32 40.34 15.29C40.3626 15.2715 40.3813 15.2488 40.3951 15.223C40.4088 15.1973 40.4173 15.169 40.42 15.14C40.1856 14.0758 39.8124 13.047 39.31 12.08C39.5489 11.7395 39.7565 11.378 39.93 11C42.12 10.76 43.22 10.52 43.22 10.28V10.23ZM43.22 32.9V29.81C43.22 29.57 42.12 29.33 39.93 29.09C39.7633 28.6845 39.552 28.2988 39.3 27.94C39.7991 26.9926 40.1723 25.9841 40.41 24.94C40.4073 24.9109 40.3988 24.8827 40.3851 24.8569C40.3713 24.8312 40.3526 24.8084 40.33 24.79C38.53 23.79 37.62 23.24 37.59 23.24C37.56 23.24 37.12 23.58 36.59 24.24C36.06 24.9 35.65 25.43 35.44 25.75C34.9949 25.6966 34.5451 25.6966 34.1 25.75C33.753 25.22 33.3687 24.7154 32.95 24.24C32.37 23.55 32.04 23.24 31.95 23.24C31.86 23.24 31.01 23.75 29.21 24.79C29.13 24.8367 29.09 24.8867 29.09 24.94C29.3405 25.986 29.7272 26.9946 30.24 27.94C29.9829 28.3026 29.7587 28.6875 29.57 29.09C27.38 29.33 26.28 29.57 26.28 29.81V32.9C26.28 33.14 27.38 33.36 29.57 33.57C29.7452 33.9794 29.9703 34.3656 30.24 34.72C29.7247 35.6819 29.338 36.7073 29.09 37.77C29.09 37.83 29.09 37.88 29.21 37.93L29.97 38.37L31.27 39.12C31.4891 39.2538 31.7162 39.374 31.95 39.48C32.05 39.48 32.38 39.13 32.95 38.48C33.52 37.83 33.88 37.3 34.1 37.01C34.41 37.01 34.64 37.01 34.77 37.01C34.9 37.01 35.13 37.01 35.44 37.01C36.0442 37.8788 36.7128 38.7012 37.44 39.47H37.6C37.66 39.47 38.6 38.95 40.34 37.92C40.3634 37.9 40.3825 37.8756 40.3962 37.8481C40.4099 37.8206 40.418 37.7906 40.42 37.76C40.1848 36.6992 39.8116 35.6738 39.31 34.71C39.5555 34.3472 39.7665 33.9622 39.94 33.56C42.12 33.36 43.22 33.14 43.22 32.9Z" fill="#ECBE30"/>
</svg>
