<svg width="40" height="48" viewBox="0 0 40 48" fill="none" xmlns="http://www.w3.org/2000/svg">
<path d="M4.21833e-05 34.62V34.41C4.21833e-05 34.227 0.0727385 34.0515 0.202139 33.9221C0.331539 33.7927 0.507043 33.72 0.690042 33.72H3.69004C3.87304 33.72 4.04855 33.7927 4.17795 33.9221C4.30735 34.0515 4.38004 34.227 4.38004 34.41V34.62C4.38004 34.803 4.30735 34.9785 4.17795 35.1079C4.04855 35.2373 3.87304 35.31 3.69004 35.31H0.690042C0.507043 35.31 0.331539 35.2373 0.202139 35.1079C0.0727385 34.9785 4.21833e-05 34.803 4.21833e-05 34.62ZM0.690042 28.1H3.69004C3.87304 28.1 4.04855 28.0273 4.17795 27.8979C4.30735 27.7685 4.38004 27.593 4.38004 27.41V27.2C4.38004 27.017 4.30735 26.8415 4.17795 26.7121C4.04855 26.5827 3.87304 26.51 3.69004 26.51H0.690042C0.507043 26.51 0.331539 26.5827 0.202139 26.7121C0.0727385 26.8415 4.21833e-05 27.017 4.21833e-05 27.2V27.41C4.21833e-05 27.593 0.0727385 27.7685 0.202139 27.8979C0.331539 28.0273 0.507043 28.1 0.690042 28.1ZM0.690042 20.93H3.69004C3.78065 20.93 3.87038 20.9122 3.95409 20.8775C4.03781 20.8428 4.11387 20.792 4.17795 20.7279C4.24202 20.6638 4.29284 20.5878 4.32752 20.5041C4.36219 20.4203 4.38004 20.3306 4.38004 20.24V20C4.38004 19.817 4.30735 19.6415 4.17795 19.5121C4.04855 19.3827 3.87304 19.31 3.69004 19.31H0.690042C0.507043 19.31 0.331539 19.3827 0.202139 19.5121C0.0727385 19.6415 4.21833e-05 19.817 4.21833e-05 20V20.21C-0.00400972 20.3031 0.0108406 20.3961 0.0436976 20.4833C0.0765546 20.5705 0.126737 20.6501 0.191218 20.7174C0.255698 20.7847 0.333141 20.8382 0.418873 20.8748C0.504605 20.9113 0.59685 20.9301 0.690042 20.93ZM0.690042 13.65H3.69004C3.87304 13.65 4.04855 13.5773 4.17795 13.4479C4.30735 13.3185 4.38004 13.143 4.38004 12.96V12.74C4.38004 12.557 4.30735 12.3815 4.17795 12.2521C4.04855 12.1227 3.87304 12.05 3.69004 12.05H0.690042C0.507043 12.05 0.331539 12.1227 0.202139 12.2521C0.0727385 12.3815 4.21833e-05 12.557 4.21833e-05 12.74V13C0.0102608 13.176 0.087444 13.3414 0.215753 13.4623C0.344063 13.5831 0.513767 13.6503 0.690042 13.65ZM25.23 7.23001L34.73 4.58001V13.38C34.0072 13.2139 33.2525 13.252 32.55 13.49C30.85 14.07 29.85 15.56 30.22 16.78C30.59 18 32.22 18.53 33.88 17.94C35.31 17.47 36.32 16.57 36.32 15.3V1.30001C36.32 0.550011 35.79 0.130011 34.94 0.430011L24.7 3.19001C24.36 3.26255 24.0606 3.46258 23.8635 3.749C23.6663 4.03542 23.5864 4.38647 23.64 4.73001V9.19001H25.23V7.19001V7.23001ZM20.15 27.32L29.15 29.79V36.19C28.04 36.61 26.92 37.11 25.87 37.62C25.5 37.83 25.39 38.04 25.61 38.46C26.0515 39.3875 26.4225 40.3469 26.72 41.33C26.72 41.44 26.72 41.54 26.66 41.54L26.56 41.44C25.66 40.64 25 39.8 24 39C23.7204 38.737 23.3727 38.5573 22.9963 38.4813C22.62 38.4053 22.2299 38.4361 21.87 38.57C20.34 39.1 18.75 39.57 17.21 40C16.7958 40.1392 16.3658 40.2266 15.93 40.26C15.72 40 15.93 39.84 15.93 39.63C17 35.7 18 31.78 19.08 27.91C19.24 27.27 19.51 27.16 20.15 27.32ZM21.89 32.85C22.0442 32.936 22.214 32.9902 22.3894 33.0095C22.5649 33.0287 22.7424 33.0125 22.9115 32.962C23.0806 32.9114 23.2378 32.8274 23.3739 32.715C23.5099 32.6026 23.6221 32.4641 23.7037 32.3076C23.7853 32.1511 23.8347 31.9798 23.8489 31.8039C23.8632 31.6279 23.842 31.451 23.7866 31.2834C23.7313 31.1158 23.6429 30.961 23.5267 30.8281C23.4105 30.6953 23.2688 30.5871 23.11 30.51C22.9469 30.4187 22.767 30.3615 22.5811 30.3418C22.3951 30.3221 22.2072 30.3404 22.0286 30.3956C21.85 30.4508 21.6844 30.5417 21.542 30.6627C21.3996 30.7838 21.2832 30.9326 21.2 31.1C21.1304 31.2602 21.093 31.4326 21.09 31.6072C21.087 31.7819 21.1185 31.9554 21.1825 32.1179C21.2466 32.2804 21.3421 32.4287 21.4635 32.5543C21.5849 32.68 21.7298 32.7804 21.89 32.85ZM4.33004 41.85V41.64C4.31739 41.4658 4.23914 41.3029 4.11109 41.1841C3.98303 41.0653 3.8147 40.9996 3.64004 41H0.690042C0.507043 41 0.331539 41.0727 0.202139 41.2021C0.0727385 41.3315 4.21833e-05 41.507 4.21833e-05 41.69V41.9C4.21833e-05 42.083 0.0727385 42.2585 0.202139 42.3879C0.331539 42.5173 0.507043 42.59 0.690042 42.59H3.69004C3.86424 42.5774 4.02716 42.4991 4.14593 42.3711C4.26471 42.243 4.3305 42.0747 4.33004 41.9V41.85ZM39.23 31C35.85 30.1133 32.4734 29.2067 29.1 28.28V29.74L37.44 32.05C37.75 32.05 38.29 32.05 38.13 32.63C37.38 35.39 36.64 38.1 35.84 41.01C35.16 39.8 34.57 38.68 33.84 37.68C32.3 35.23 31.99 35.13 29.23 36.08L29.06 36.14V44.4C29.06 44.6652 28.9547 44.9196 28.7671 45.1071C28.5796 45.2947 28.3253 45.4 28.06 45.4H26.83C29.46 46.13 32.1 46.87 34.73 47.58C35.42 47.74 35.73 47.69 35.89 47C37.22 42 38.54 37.08 39.89 32.15C40.1 31.41 39.89 31.25 39.2 31.04L39.23 31ZM14.68 42.13C13.99 41.91 13.77 41.75 13.93 41.02C15.31 36.08 16.69 31.15 18.01 26.17C18.17 25.48 18.49 25.42 19.18 25.58L29.1 28.33V10.2C29.1 9.93479 28.9947 9.68044 28.8071 9.4929C28.6196 9.30537 28.3653 9.20001 28.1 9.20001H25.23V17.42C25.1142 18.0389 24.8298 18.6139 24.4081 19.0814C23.9864 19.549 23.4438 19.8911 22.84 20.07C21.15 20.66 19.5 20.13 19.13 18.91C18.76 17.69 19.82 16.2 21.46 15.62C22.1607 15.3727 22.9181 15.3344 23.64 15.51V9.19001H3.53004C3.26483 9.19001 3.01047 9.29537 2.82294 9.4829C2.6354 9.67044 2.53004 9.92479 2.53004 10.19V11.67H3.75004C3.93903 11.6446 4.13139 11.6701 4.3072 11.7439C4.48302 11.8178 4.63591 11.9372 4.75004 12.09C4.91011 12.2698 5.0074 12.4967 5.02724 12.7366C5.04708 12.9765 4.9884 13.2164 4.86004 13.42C4.74054 13.6213 4.56851 13.7863 4.3624 13.8973C4.15629 14.0082 3.92387 14.061 3.69004 14.05C3.30378 14.0251 2.91631 14.0251 2.53004 14.05V18.88H3.75004C3.91113 18.869 4.07276 18.8914 4.22476 18.9458C4.37676 19.0003 4.51585 19.0856 4.63326 19.1965C4.75067 19.3073 4.84388 19.4413 4.907 19.5899C4.97012 19.7385 5.0018 19.8986 5.00004 20.06C5.00018 20.2245 4.96705 20.3874 4.90263 20.5387C4.83822 20.6901 4.74386 20.8269 4.62522 20.9409C4.50658 21.0548 4.36612 21.1436 4.21229 21.2019C4.05845 21.2602 3.89441 21.2868 3.73004 21.28H2.53004V26.16H3.16004C4.44004 26.16 5.02004 26.53 5.02004 27.32C5.02004 28.11 4.48004 28.54 3.16004 28.54H2.53004V33.37H3.75004C3.95613 33.3442 4.1654 33.3727 4.35703 33.4528C4.54867 33.5329 4.716 33.6618 4.8424 33.8266C4.96879 33.9914 5.04985 34.1865 5.0775 34.3923C5.10516 34.5982 5.07845 34.8077 5.00004 35C4.90832 35.2451 4.74021 35.4543 4.52052 35.5965C4.30084 35.7388 4.04123 35.8066 3.78004 35.79H2.53004V40.56H3.69004C3.89334 40.5594 4.09373 40.6084 4.27383 40.7027C4.45392 40.797 4.60829 40.9339 4.72355 41.1013C4.83881 41.2688 4.91149 41.4619 4.93527 41.6638C4.95905 41.8657 4.93323 42.0703 4.86004 42.26C4.74547 42.5085 4.55488 42.714 4.3158 42.8471C4.07673 42.9801 3.80156 43.0336 3.53004 43C3.19739 43.03 2.8627 43.03 2.53004 43V44.4C2.5298 44.5365 2.55751 44.6717 2.61147 44.7971C2.66544 44.9225 2.74451 45.0355 2.84382 45.1292C2.94313 45.2229 3.06057 45.2953 3.18891 45.3418C3.31725 45.3884 3.45376 45.4082 3.59004 45.4H26.83L24.7 44.82C21.36 43.92 18.01 42.97 14.7 42.12L14.68 42.13Z" fill="#46BFAF"/>
</svg>
