<svg width="40" height="40" viewBox="0 0 40 40" fill="none" xmlns="http://www.w3.org/2000/svg">
<path d="M0.5 39.5V0.5H39.5V7.44H35.25V11.15H39.5V18.09H35.25V21.91H39.5V28.82H35.25V32.56H39.5V39.5H0.5ZM8 28.39H27.68V22.34L20.39 18C21.3302 17.5282 22.1148 16.7957 22.65 15.89C23.1963 14.9834 23.493 13.9484 23.51 12.89C23.508 12.1653 23.3619 11.4482 23.0804 10.7804C22.7989 10.1126 22.3874 9.50743 21.87 9C21.356 8.45813 20.7351 8.02898 20.0465 7.73978C19.3579 7.45057 18.6167 7.30762 17.87 7.32C17.1221 7.29881 16.3782 7.43774 15.6883 7.72749C14.9985 8.01723 14.3785 8.4511 13.87 9C12.8275 10.0472 12.2384 11.4623 12.23 12.94C12.2103 14.0035 12.5099 15.0485 13.09 15.94C13.662 16.8061 14.4426 17.5145 15.36 18L8 22.34V28.39Z" fill="#46BFAF"/>
</svg>
