<svg width="48" height="30" viewBox="0 0 48 30" fill="none" xmlns="http://www.w3.org/2000/svg">
<path d="M0.77999 1.26999V0.389988L0.85999 0.309988H11.32L11.4 0.389988V1.22999C11.4 1.45999 11.26 1.56999 10.98 1.56999H9.88999C8.96999 1.56999 8.50999 1.84999 8.50999 2.40999C8.5178 2.81998 8.61687 3.22308 8.79999 3.58999C10.2 7.02332 13.3067 13.8267 18.12 24H18.37L23 14.71C22.64 13.87 22.33 13.19 22.08 12.65L18.89 6.35999L18.05 4.67999C17.6333 3.79129 17.1555 2.93257 16.62 2.10999C16.2461 1.75992 15.7522 1.56664 15.24 1.56999C14.84 1.50999 14.65 1.40999 14.65 1.26999V0.389988L14.77 0.309988H23.05H23.26V1.18999C23.26 1.41999 23.12 1.52999 22.84 1.52999L22.21 1.60999C21.9353 1.64475 21.6663 1.71535 21.41 1.81999C21.3234 1.86965 21.2557 1.94671 21.2177 2.03904C21.1797 2.13137 21.1735 2.23373 21.2 2.32999C21.2246 2.5732 21.2818 2.812 21.37 3.03999C21.45 3.25999 21.65 3.69999 21.95 4.33999L25.02 10.64L28.42 3.83999C28.87 2.93999 28.94 2.33999 28.63 2.02999C28.32 1.71999 27.94 1.64999 27.08 1.56999H26.7C26.645 1.57122 26.5905 1.5602 26.5403 1.53771C26.4902 1.51522 26.4456 1.48184 26.41 1.43999C26.32 1.43999 26.28 1.32999 26.28 1.18999V0.389988L26.41 0.309988C28.0033 0.309988 30.6067 0.309988 34.22 0.309988L34.3 0.389988V1.22999C34.3 1.45999 34.17 1.56999 33.92 1.56999C33.4942 1.56907 33.0703 1.62627 32.66 1.73999C32.3615 1.88711 32.1142 2.12054 31.95 2.40999C31.4895 3.05027 31.0687 3.71819 30.69 4.40999L26.28 12.64L26.15 12.94L31.53 23.94L31.86 24.06L40.35 3.86999C40.68 3.07999 40.64 2.50999 40.22 2.14999C39.7575 1.77497 39.1751 1.57965 38.58 1.59999H37.78C37.7317 1.59624 37.6847 1.5828 37.6417 1.56046C37.5988 1.53813 37.5608 1.50735 37.53 1.46999C37.4799 1.45003 37.437 1.41556 37.4067 1.37101C37.3764 1.32646 37.3601 1.27386 37.36 1.21999V0.379988L37.49 0.299988H47.11L47.19 0.379988V1.21999C47.19 1.41999 47.06 1.53999 46.81 1.59999C45.8241 1.55712 44.8512 1.83809 44.04 2.39999C43.3997 2.95327 42.9081 3.65802 42.61 4.44999L32.15 28.23C31.9804 28.7375 31.655 29.1784 31.22 29.49C31.0725 29.5902 30.8983 29.6437 30.72 29.6437C30.5417 29.6437 30.3675 29.5902 30.22 29.49C29.7854 29.1614 29.4414 28.7278 29.22 28.23C28.1467 26.13 26.44 22.4633 24.1 17.23C21.16 23.27 19.3267 26.9633 18.6 28.31C17.4533 30.31 16.4533 30.31 15.6 28.31C14.7067 26.21 12.89 22.21 10.15 16.31C7.40999 10.41 5.58999 6.40999 4.68999 4.30999C4.45649 3.50454 4.05425 2.758 3.50999 2.11999C2.84876 1.73808 2.09303 1.55088 1.32999 1.57999C0.93999 1.51999 0.73999 1.41999 0.73999 1.27999L0.77999 1.26999Z" fill="#763294"/>
</svg>
