<svg width="38" height="37" viewBox="0 0 38 37" fill="none" xmlns="http://www.w3.org/2000/svg">
<path d="M19 22.78C25.33 22.78 38 25.89 38 32.22V37H0V32.22C0 25.89 12.67 22.78 19 22.78ZM19 19C17.76 19.0013 16.5318 18.758 15.3859 18.2841C14.24 17.8102 13.1988 17.1149 12.322 16.238C11.4451 15.3612 10.7498 14.32 10.2759 13.1741C9.80196 12.0282 9.55868 10.8 9.56 9.55999C9.56 7.05635 10.5546 4.65525 12.3249 2.88491C14.0953 1.11456 16.4964 0.119995 19 0.119995C21.5036 0.119995 23.9047 1.11456 25.6751 2.88491C27.4454 4.65525 28.44 7.05635 28.44 9.55999C28.4413 10.8 28.198 12.0282 27.7241 13.1741C27.2502 14.32 26.5549 15.3612 25.678 16.238C24.8012 17.1149 23.76 17.8102 22.6141 18.2841C21.4682 18.758 20.24 19.0013 19 19Z" fill="#1A22A2"/>
</svg>
