<svg width="42" height="34" viewBox="0 0 42 34" fill="none" xmlns="http://www.w3.org/2000/svg">
<path d="M27.74 18.71H36.07C36.0822 18.6305 36.0822 18.5495 36.07 18.47C36.0568 18.398 36.0219 18.3317 35.97 18.28L30.39 5.17999H11.66L6.07998 18.28C6.0281 18.3317 5.99321 18.398 5.97998 18.47C5.95093 18.5469 5.93406 18.6279 5.92998 18.71H14.26L16.77 23.77H25.23L27.74 18.71ZM41.27 19.46V32.19C41.2746 32.4081 41.2354 32.625 41.1546 32.8277C41.0739 33.0303 40.9533 33.2148 40.8 33.37C40.4707 33.6929 40.0311 33.8788 39.57 33.89H2.42998C2.2073 33.8944 1.98634 33.8502 1.78252 33.7604C1.57871 33.6706 1.39696 33.5373 1.24998 33.37C0.943677 33.0498 0.759625 32.6321 0.72998 32.19V19.46C0.736576 18.357 0.960864 17.2661 1.38998 16.25L7.67998 1.67999C7.87753 1.19952 8.22934 0.798449 8.67998 0.539988C9.06102 0.255977 9.52477 0.10491 9.99998 0.109987H32C32.4871 0.127036 32.9605 0.275625 33.37 0.539988C33.8355 0.779815 34.1928 1.18718 34.37 1.67999L40.66 16.25C41.0891 17.2661 41.3134 18.357 41.32 19.46H41.27Z" fill="#E13A3A"/>
</svg>
