<svg width="193" height="123" viewBox="0 0 193 123" fill="none" xmlns="http://www.w3.org/2000/svg">
<path d="M156.592 4.56314C156.107 3.22815 155.22 2.07403 154.053 1.25762C152.885 0.441203 151.493 0.00210392 150.065 5.11442e-07H6.93501C6.02419 -0.000348345 5.12225 0.177773 4.2807 0.524177C3.43914 0.870582 2.67448 1.37847 2.03043 2.01884C1.38638 2.65921 0.875563 3.4195 0.527169 4.25625C0.178776 5.09299 -0.000349594 5.98982 5.1223e-07 6.89544V116.105C0.00259835 117.933 0.734079 119.685 2.03409 120.977C3.33409 122.27 5.09652 122.997 6.93501 123H150.065C151.903 122.997 153.666 122.27 154.966 120.978C156.266 119.685 156.997 117.933 157 116.105V6.89544C157.001 6.10035 156.863 5.3111 156.592 4.56314Z" fill="#F2F2F2"/>
<path d="M0 97H67C70.3137 97 73 99.6863 73 103V123H6C2.68629 123 0 120.314 0 117V97Z" fill="white"/>
<g clip-path="url(#clip0_1651_1827)">
<path d="M19.25 114.083V105.917C19.25 105.275 18.725 104.75 18.0833 104.75H9.91667C9.275 104.75 8.75 105.275 8.75 105.917V114.083C8.75 114.725 9.275 115.25 9.91667 115.25H18.0833C18.725 115.25 19.25 114.725 19.25 114.083ZM12.1917 111.155L13.4167 112.631L15.225 110.303C15.3417 110.152 15.575 110.152 15.6917 110.309L17.7392 113.039C17.885 113.232 17.745 113.506 17.5058 113.506H10.5117C10.2667 113.506 10.1325 113.226 10.2842 113.033L11.7367 111.167C11.8475 111.015 12.0692 111.009 12.1917 111.155Z" fill="black" fill-opacity="0.87"/>
</g>
<path d="M27.4922 105.469V114H26.3613V105.469H27.4922ZM30.4629 108.92V114H29.373V107.66H30.4043L30.4629 108.92ZM30.2402 110.59L29.7363 110.572C29.7402 110.139 29.7969 109.738 29.9062 109.371C30.0156 109 30.1777 108.678 30.3926 108.404C30.6074 108.131 30.875 107.92 31.1953 107.771C31.5156 107.619 31.8867 107.543 32.3086 107.543C32.6055 107.543 32.8789 107.586 33.1289 107.672C33.3789 107.754 33.5957 107.885 33.7793 108.064C33.9629 108.244 34.1055 108.475 34.207 108.756C34.3086 109.037 34.3594 109.377 34.3594 109.775V114H33.2754V109.828C33.2754 109.496 33.2188 109.23 33.1055 109.031C32.9961 108.832 32.8398 108.688 32.6367 108.598C32.4336 108.504 32.1953 108.457 31.9219 108.457C31.6016 108.457 31.334 108.514 31.1191 108.627C30.9043 108.74 30.7324 108.896 30.6035 109.096C30.4746 109.295 30.3809 109.523 30.3223 109.781C30.2676 110.035 30.2402 110.305 30.2402 110.59ZM34.3477 109.992L33.6211 110.215C33.625 109.867 33.6816 109.533 33.791 109.213C33.9043 108.893 34.0664 108.607 34.2773 108.357C34.4922 108.107 34.7559 107.91 35.0684 107.766C35.3809 107.617 35.7383 107.543 36.1406 107.543C36.4805 107.543 36.7812 107.588 37.043 107.678C37.3086 107.768 37.5312 107.906 37.7109 108.094C37.8945 108.277 38.0332 108.514 38.127 108.803C38.2207 109.092 38.2676 109.436 38.2676 109.834V114H37.1777V109.822C37.1777 109.467 37.1211 109.191 37.0078 108.996C36.8984 108.797 36.7422 108.658 36.5391 108.58C36.3398 108.498 36.1016 108.457 35.8242 108.457C35.5859 108.457 35.375 108.498 35.1914 108.58C35.0078 108.662 34.8535 108.775 34.7285 108.92C34.6035 109.061 34.5078 109.223 34.4414 109.406C34.3789 109.59 34.3477 109.785 34.3477 109.992ZM43.6465 112.916V109.652C43.6465 109.402 43.5957 109.186 43.4941 109.002C43.3965 108.814 43.248 108.67 43.0488 108.568C42.8496 108.467 42.6035 108.416 42.3105 108.416C42.0371 108.416 41.7969 108.463 41.5898 108.557C41.3867 108.65 41.2266 108.773 41.1094 108.926C40.9961 109.078 40.9395 109.242 40.9395 109.418H39.8555C39.8555 109.191 39.9141 108.967 40.0312 108.744C40.1484 108.521 40.3164 108.32 40.5352 108.141C40.7578 107.957 41.0234 107.812 41.332 107.707C41.6445 107.598 41.9922 107.543 42.375 107.543C42.8359 107.543 43.2422 107.621 43.5938 107.777C43.9492 107.934 44.2266 108.17 44.4258 108.486C44.6289 108.799 44.7305 109.191 44.7305 109.664V112.617C44.7305 112.828 44.748 113.053 44.7832 113.291C44.8223 113.529 44.8789 113.734 44.9531 113.906V114H43.8223C43.7676 113.875 43.7246 113.709 43.6934 113.502C43.6621 113.291 43.6465 113.096 43.6465 112.916ZM43.834 110.156L43.8457 110.918H42.75C42.4414 110.918 42.166 110.943 41.9238 110.994C41.6816 111.041 41.4785 111.113 41.3145 111.211C41.1504 111.309 41.0254 111.432 40.9395 111.58C40.8535 111.725 40.8105 111.895 40.8105 112.09C40.8105 112.289 40.8555 112.471 40.9453 112.635C41.0352 112.799 41.1699 112.93 41.3496 113.027C41.5332 113.121 41.7578 113.168 42.0234 113.168C42.3555 113.168 42.6484 113.098 42.9023 112.957C43.1562 112.816 43.3574 112.645 43.5059 112.441C43.6582 112.238 43.7402 112.041 43.752 111.85L44.2148 112.371C44.1875 112.535 44.1133 112.717 43.9922 112.916C43.8711 113.115 43.709 113.307 43.5059 113.49C43.3066 113.67 43.0684 113.82 42.791 113.941C42.5176 114.059 42.209 114.117 41.8652 114.117C41.4355 114.117 41.0586 114.033 40.7344 113.865C40.4141 113.697 40.1641 113.473 39.9844 113.191C39.8086 112.906 39.7207 112.588 39.7207 112.236C39.7207 111.896 39.7871 111.598 39.9199 111.34C40.0527 111.078 40.2441 110.861 40.4941 110.689C40.7441 110.514 41.0449 110.381 41.3965 110.291C41.748 110.201 42.1406 110.156 42.5742 110.156H43.834ZM50.543 107.66H51.5273V113.865C51.5273 114.424 51.4141 114.9 51.1875 115.295C50.9609 115.689 50.6445 115.988 50.2383 116.191C49.8359 116.398 49.3711 116.502 48.8438 116.502C48.625 116.502 48.3672 116.467 48.0703 116.396C47.7773 116.33 47.4883 116.215 47.2031 116.051C46.9219 115.891 46.6855 115.674 46.4941 115.4L47.0625 114.756C47.3281 115.076 47.6055 115.299 47.8945 115.424C48.1875 115.549 48.4766 115.611 48.7617 115.611C49.1055 115.611 49.4023 115.547 49.6523 115.418C49.9023 115.289 50.0957 115.098 50.2324 114.844C50.373 114.594 50.4434 114.285 50.4434 113.918V109.055L50.543 107.66ZM46.1777 110.9V110.777C46.1777 110.293 46.2344 109.854 46.3477 109.459C46.4648 109.061 46.6309 108.719 46.8457 108.434C47.0645 108.148 47.3281 107.93 47.6367 107.777C47.9453 107.621 48.293 107.543 48.6797 107.543C49.0781 107.543 49.4258 107.613 49.7227 107.754C50.0234 107.891 50.2773 108.092 50.4844 108.357C50.6953 108.619 50.8613 108.936 50.9824 109.307C51.1035 109.678 51.1875 110.098 51.2344 110.566V111.105C51.1914 111.57 51.1074 111.988 50.9824 112.359C50.8613 112.73 50.6953 113.047 50.4844 113.309C50.2773 113.57 50.0234 113.771 49.7227 113.912C49.4219 114.049 49.0703 114.117 48.668 114.117C48.2891 114.117 47.9453 114.037 47.6367 113.877C47.332 113.717 47.0703 113.492 46.8516 113.203C46.6328 112.914 46.4648 112.574 46.3477 112.184C46.2344 111.789 46.1777 111.361 46.1777 110.9ZM47.2617 110.777V110.9C47.2617 111.217 47.293 111.514 47.3555 111.791C47.4219 112.068 47.5215 112.312 47.6543 112.523C47.791 112.734 47.9648 112.9 48.1758 113.021C48.3867 113.139 48.6387 113.197 48.9316 113.197C49.291 113.197 49.5879 113.121 49.8223 112.969C50.0566 112.816 50.2422 112.615 50.3789 112.365C50.5195 112.115 50.6289 111.844 50.707 111.551V110.139C50.6641 109.924 50.5977 109.717 50.5078 109.518C50.4219 109.314 50.3086 109.135 50.168 108.979C50.0312 108.818 49.8613 108.691 49.6582 108.598C49.4551 108.504 49.2168 108.457 48.9434 108.457C48.6465 108.457 48.3906 108.52 48.1758 108.645C47.9648 108.766 47.791 108.934 47.6543 109.148C47.5215 109.359 47.4219 109.605 47.3555 109.887C47.293 110.164 47.2617 110.461 47.2617 110.777ZM55.8047 114.117C55.3633 114.117 54.9629 114.043 54.6035 113.895C54.248 113.742 53.9414 113.529 53.6836 113.256C53.4297 112.982 53.2344 112.658 53.0977 112.283C52.9609 111.908 52.8926 111.498 52.8926 111.053V110.807C52.8926 110.291 52.9688 109.832 53.1211 109.43C53.2734 109.023 53.4805 108.68 53.7422 108.398C54.0039 108.117 54.3008 107.904 54.6328 107.76C54.9648 107.615 55.3086 107.543 55.6641 107.543C56.1172 107.543 56.5078 107.621 56.8359 107.777C57.168 107.934 57.4395 108.152 57.6504 108.434C57.8613 108.711 58.0176 109.039 58.1191 109.418C58.2207 109.793 58.2715 110.203 58.2715 110.648V111.135H53.5371V110.25H57.1875V110.168C57.1719 109.887 57.1133 109.613 57.0117 109.348C56.9141 109.082 56.7578 108.863 56.543 108.691C56.3281 108.52 56.0352 108.434 55.6641 108.434C55.418 108.434 55.1914 108.486 54.9844 108.592C54.7773 108.693 54.5996 108.846 54.4512 109.049C54.3027 109.252 54.1875 109.5 54.1055 109.793C54.0234 110.086 53.9824 110.424 53.9824 110.807V111.053C53.9824 111.354 54.0234 111.637 54.1055 111.902C54.1914 112.164 54.3145 112.395 54.4746 112.594C54.6387 112.793 54.8359 112.949 55.0664 113.062C55.3008 113.176 55.5664 113.232 55.8633 113.232C56.2461 113.232 56.5703 113.154 56.8359 112.998C57.1016 112.842 57.334 112.633 57.5332 112.371L58.1895 112.893C58.0527 113.1 57.8789 113.297 57.668 113.484C57.457 113.672 57.1973 113.824 56.8887 113.941C56.584 114.059 56.2227 114.117 55.8047 114.117Z" fill="black" fill-opacity="0.87"/>
<g clip-path="url(#clip1_1651_1827)">
<path d="M143 17H142V15C142 12.24 139.76 10 137 10C134.24 10 132 12.24 132 15V17H131C129.9 17 129 17.9 129 19V29C129 30.1 129.9 31 131 31H143C144.1 31 145 30.1 145 29V19C145 17.9 144.1 17 143 17ZM137 26C135.9 26 135 25.1 135 24C135 22.9 135.9 22 137 22C138.1 22 139 22.9 139 24C139 25.1 138.1 26 137 26ZM140.1 17H133.9V15C133.9 13.29 135.29 11.9 137 11.9C138.71 11.9 140.1 13.29 140.1 15V17Z" fill="#4A4A4A"/>
</g>
<path d="M170.5 28.3068C170.189 28.3068 169.929 28.2015 169.719 27.991C169.509 27.7811 169.403 27.5209 169.403 27.2102V23.7559L168.197 24.9621C167.978 25.1815 167.718 25.2911 167.416 25.2911C167.114 25.2911 166.854 25.1815 166.634 24.9621C166.415 24.7428 166.305 24.4822 166.305 24.1803C166.305 23.8791 166.415 23.6188 166.634 23.3995L169.732 20.3016C169.842 20.1919 169.961 20.114 170.089 20.068C170.217 20.0227 170.354 20 170.5 20C170.646 20 170.783 20.0227 170.911 20.068C171.039 20.114 171.158 20.1919 171.268 20.3016L174.393 23.4269C174.612 23.6462 174.718 23.9065 174.709 24.2077C174.699 24.5096 174.585 24.7702 174.366 24.9896C174.146 25.2089 173.881 25.3185 173.57 25.3185C173.26 25.3185 172.995 25.2089 172.775 24.9896L171.597 23.7559V27.2102C171.597 27.5209 171.492 27.7811 171.282 27.991C171.071 28.2015 170.811 28.3068 170.5 28.3068ZM170.5 41C170.354 41 170.217 40.977 170.089 40.9309C169.961 40.8856 169.842 40.8081 169.732 40.6984L166.607 37.5731C166.388 37.3538 166.283 37.0932 166.292 36.7912C166.301 36.49 166.415 36.2298 166.634 36.0104C166.854 35.7911 167.124 35.6767 167.444 35.6672C167.763 35.6584 168.023 35.7728 168.225 36.0104L169.403 37.2441V33.7898C169.403 33.4791 169.509 33.2185 169.719 33.0079C169.929 32.7981 170.189 32.6932 170.5 32.6932C170.811 32.6932 171.071 32.7981 171.282 33.0079C171.492 33.2185 171.597 33.4791 171.597 33.7898V37.2441L172.803 36.0104C173.004 35.7911 173.26 35.6815 173.57 35.6815C173.881 35.6815 174.146 35.7911 174.366 36.0104C174.585 36.2298 174.695 36.4948 174.695 36.8055C174.695 37.1162 174.585 37.3812 174.366 37.6005L171.268 40.6984C171.158 40.8081 171.039 40.8856 170.911 40.9309C170.783 40.977 170.646 41 170.5 41ZM176.01 34.3655C175.791 34.1462 175.677 33.8764 175.667 33.5562C175.658 33.2368 175.773 32.9765 176.01 32.7755L177.244 31.5966H173.79C173.479 31.5966 173.219 31.4913 173.009 31.2808C172.798 31.071 172.693 30.8107 172.693 30.5C172.693 30.1893 172.798 29.9287 173.009 29.7181C173.219 29.5083 173.479 29.4034 173.79 29.4034H177.244L176.01 28.1971C175.791 27.9961 175.681 27.7402 175.681 27.4295C175.681 27.1188 175.791 26.8538 176.01 26.6345C176.23 26.4151 176.495 26.3055 176.805 26.3055C177.116 26.3055 177.381 26.4151 177.601 26.6345L180.698 29.7324C180.808 29.842 180.886 29.9608 180.932 30.0888C180.977 30.2167 181 30.3538 181 30.5C181 30.6462 180.977 30.7833 180.932 30.9112C180.886 31.0392 180.808 31.158 180.698 31.2676L177.573 34.3929C177.354 34.6123 177.094 34.7172 176.792 34.7077C176.49 34.6989 176.23 34.5849 176.01 34.3655ZM163.399 34.3655L160.302 31.2676C160.192 31.158 160.114 31.0392 160.069 30.9112C160.023 30.7833 160 30.6462 160 30.5C160 30.3538 160.023 30.2167 160.069 30.0888C160.114 29.9608 160.192 29.842 160.302 29.7324L163.427 26.607C163.628 26.406 163.879 26.3055 164.181 26.3055C164.483 26.3055 164.743 26.4151 164.962 26.6345C165.181 26.8538 165.287 27.1188 165.278 27.4295C165.268 27.7402 165.154 28.0052 164.935 28.2245L163.756 29.4034H167.21C167.521 29.4034 167.782 29.5083 167.992 29.7181C168.202 29.9287 168.307 30.1893 168.307 30.5C168.307 30.8107 168.202 31.071 167.992 31.2808C167.782 31.4913 167.521 31.5966 167.21 31.5966H163.756L164.99 32.8029C165.209 33.0039 165.319 33.2598 165.319 33.5705C165.319 33.8812 165.209 34.1462 164.99 34.3655C164.77 34.5849 164.505 34.6945 164.195 34.6945C163.884 34.6945 163.619 34.5849 163.399 34.3655Z" fill="#4A4A4A"/>
<path d="M171 11.6667C160.917 11.6667 152.667 19.9167 152.667 30C152.667 40.0833 160.917 48.3333 171 48.3333C181.083 48.3333 189.333 40.0833 189.333 30C189.333 19.9167 181.083 11.6667 171 11.6667ZM156.333 30C156.333 21.9333 162.933 15.3333 171 15.3333C174.3 15.3333 177.417 16.4333 179.983 18.45L159.45 38.9833C157.433 36.4167 156.333 33.3 156.333 30ZM171 44.6667C167.7 44.6667 164.583 43.5667 162.017 41.55L182.55 21.0167C184.567 23.5833 185.667 26.7 185.667 30C185.667 38.0667 179.067 44.6667 171 44.6667Z" fill="#EB002B"/>
<defs>
<clipPath id="clip0_1651_1827">
<rect width="14" height="14" fill="white" transform="translate(7 103)"/>
</clipPath>
<clipPath id="clip1_1651_1827">
<rect width="24" height="24" fill="white" transform="translate(125 8)"/>
</clipPath>
</defs>
</svg>
