<svg width="403" height="167" viewBox="0 0 403 167" fill="none" xmlns="http://www.w3.org/2000/svg">
<g clip-path="url(#clip0_403_312)">
<path d="M213.496 4.91812C212.976 3.47928 212.024 2.23538 210.771 1.35545C209.518 0.475525 208.024 0.00226759 206.492 5.51228e-07H52.8953C51.9179 -0.000375443 50.95 0.191602 50.0469 0.564954C49.1438 0.938306 48.3233 1.48571 47.6321 2.17589C46.941 2.86608 46.3928 3.6855 46.0189 4.58735C45.645 5.48919 45.4528 6.45578 45.4532 7.43185V125.137C45.456 127.107 46.241 128.995 47.636 130.389C49.0311 131.782 50.9224 132.566 52.8953 132.568H206.492C208.465 132.566 210.356 131.782 211.751 130.389C213.146 128.995 213.931 127.107 213.934 125.137V7.43185C213.935 6.57491 213.787 5.72427 213.496 4.91812Z" fill="#F2F2F2"/>
<g filter="url(#filter0_d_403_312)">
<path d="M398.043 4.91813C397.523 3.47929 396.571 2.23538 395.318 1.35545C394.065 0.475525 392.571 0.00226759 391.039 5.51255e-07H237.442C236.465 -0.000375443 235.497 0.191593 234.594 0.564945C233.691 0.938297 232.87 1.48571 232.179 2.1759C231.488 2.86608 230.94 3.68551 230.566 4.58736C230.192 5.4892 230 6.45577 230 7.43184V125.137C230.003 127.107 230.788 128.995 232.183 130.389C233.578 131.782 235.469 132.566 237.442 132.568H391.039C393.012 132.566 394.903 131.782 396.298 130.389C397.693 128.995 398.478 127.107 398.481 125.137V7.43184C398.482 6.5749 398.334 5.72427 398.043 4.91813Z" fill="white"/>
</g>
<path d="M386.635 15.8383V98.0279C386.635 98.2995 386.581 98.5685 386.477 98.8195C386.373 99.0705 386.221 99.2986 386.028 99.4908C385.836 99.6829 385.608 99.8354 385.357 99.9394C385.105 100.043 384.836 100.097 384.564 100.097H244.847C244.748 100.098 244.648 100.09 244.55 100.074C244.057 100.003 243.607 99.7573 243.281 99.3815C242.955 99.0057 242.775 98.5251 242.775 98.0279V15.8383C242.775 15.5667 242.828 15.2977 242.932 15.0467C243.036 14.7957 243.189 14.5676 243.381 14.3754C243.574 14.1833 243.802 14.0308 244.053 13.9268C244.304 13.8228 244.574 13.7692 244.846 13.7691H384.563C384.835 13.769 385.104 13.8224 385.355 13.9263C385.607 14.0301 385.835 14.1824 386.027 14.3745C386.22 14.5665 386.373 14.7945 386.477 15.0454C386.581 15.2963 386.635 15.5653 386.635 15.8369V15.8383Z" fill="#E6E6E6"/>
<path d="M277.994 62.6374C288.033 62.6374 296.172 54.5097 296.172 44.4838C296.172 34.4578 288.033 26.3301 277.994 26.3301C267.954 26.3301 259.815 34.4578 259.815 44.4838C259.815 54.5097 267.954 62.6374 277.994 62.6374Z" fill="#2A9CC8"/>
<path d="M334.744 100.538H245.564C245.453 100.539 245.341 100.53 245.231 100.511L287.409 27.5542C287.667 27.0998 288.04 26.7219 288.492 26.4589C288.943 26.1959 289.457 26.0573 289.98 26.0573C290.502 26.0573 291.016 26.1959 291.467 26.4589C291.919 26.7219 292.292 27.0998 292.55 27.5542L320.856 76.5141L322.213 78.8568L334.744 100.538Z" fill="#E5F5FF"/>
<path opacity="0.2" d="M334.744 100.538H304.296L319.243 78.8565L320.319 77.2952L320.857 76.5142L322.213 78.8565L334.744 100.538Z" fill="#2A9CC8"/>
<path d="M384.399 100.538H307.266L322.213 78.8568L323.288 77.2949L342.765 49.0406C344.042 47.1888 347.114 47.0735 348.615 48.6913C348.716 48.8017 348.81 48.9184 348.896 49.0406L384.399 100.538Z" fill="#AADAED"/>
<g filter="url(#filter1_d_403_312)">
<path d="M172.787 30.397C172.266 28.9582 171.315 27.7143 170.062 26.8343C168.809 25.9544 167.315 25.4812 165.783 25.4789H12.1861C11.2087 25.4785 10.2407 25.6705 9.33765 26.0439C8.43456 26.4172 7.61399 26.9646 6.92285 27.6548C6.23171 28.345 5.68353 29.1644 5.30966 30.0663C4.93579 30.9681 4.74356 31.9347 4.74394 32.9107V150.615C4.74674 152.586 5.5317 154.474 6.92677 155.867C8.32184 157.261 10.2132 158.045 12.1861 158.047H165.783C167.755 158.045 169.647 157.261 171.042 155.867C172.437 154.474 173.222 152.586 173.225 150.615V32.9107C173.226 32.0538 173.078 31.2032 172.787 30.397Z" fill="white"/>
</g>
<path d="M161.379 41.3172V123.507C161.379 123.778 161.325 124.047 161.221 124.298C161.117 124.549 160.965 124.778 160.772 124.97C160.58 125.162 160.352 125.314 160.101 125.418C159.849 125.522 159.58 125.576 159.308 125.576H19.5912C19.4917 125.577 19.3923 125.569 19.2942 125.553C18.8013 125.482 18.3506 125.236 18.0245 124.86C17.6985 124.485 17.519 124.004 17.519 123.507V41.3172C17.5189 41.0456 17.5724 40.7766 17.6764 40.5256C17.7804 40.2746 17.933 40.0465 18.1252 39.8543C18.3175 39.6622 18.5458 39.5098 18.7971 39.4057C19.0484 39.3017 19.3177 39.2481 19.5897 39.248H159.307C159.579 39.2479 159.848 39.3013 160.099 39.4052C160.351 39.5091 160.579 39.6614 160.771 39.8534C160.964 40.0454 161.117 40.2734 161.221 40.5243C161.325 40.7752 161.379 41.0442 161.379 41.3159V41.3172Z" fill="#E6E6E6"/>
<path d="M52.7376 88.1163C62.7774 88.1163 70.9164 79.9886 70.9164 69.9627C70.9164 59.9367 62.7774 51.8091 52.7376 51.8091C42.6977 51.8091 34.5587 59.9367 34.5587 69.9627C34.5587 79.9886 42.6977 88.1163 52.7376 88.1163Z" fill="#2A9CC8"/>
<path d="M109.744 125.906H20.5645C20.4528 125.907 20.3413 125.898 20.2312 125.879L62.4092 52.9221C62.6666 52.4677 63.0402 52.0897 63.4917 51.8267C63.9433 51.5637 64.4567 51.4252 64.9795 51.4252C65.5023 51.4252 66.0157 51.5637 66.4673 51.8267C66.9188 52.0897 67.2924 52.4677 67.5498 52.9221L95.8565 101.882L97.2126 104.225L109.744 125.906Z" fill="#E5F5FF"/>
<path opacity="0.2" d="M109.744 125.906H79.2959L94.2427 104.224L95.3187 102.663L95.8567 101.882L97.213 104.224L109.744 125.906Z" fill="#2A9CC8"/>
<path d="M159.399 125.905H82.2657L97.2126 104.225L98.2882 102.663L117.765 74.4085C119.042 72.5567 122.114 72.4414 123.615 74.0592C123.716 74.1696 123.81 74.2862 123.896 74.4085L159.399 125.905Z" fill="#AADAED"/>
<path d="M178.5 42.3068C178.189 42.3068 177.929 42.2015 177.719 41.991C177.509 41.7811 177.403 41.5209 177.403 41.2102V37.7559L176.197 38.9621C175.978 39.1815 175.718 39.2911 175.416 39.2911C175.114 39.2911 174.854 39.1815 174.634 38.9621C174.415 38.7428 174.305 38.4822 174.305 38.1803C174.305 37.8791 174.415 37.6188 174.634 37.3995L177.732 34.3016C177.842 34.1919 177.961 34.114 178.089 34.068C178.217 34.0227 178.354 34 178.5 34C178.646 34 178.783 34.0227 178.911 34.068C179.039 34.114 179.158 34.1919 179.268 34.3016L182.393 37.4269C182.612 37.6462 182.718 37.9065 182.709 38.2077C182.699 38.5096 182.585 38.7702 182.366 38.9896C182.146 39.2089 181.881 39.3185 181.57 39.3185C181.26 39.3185 180.995 39.2089 180.775 38.9896L179.597 37.7559V41.2102C179.597 41.5209 179.492 41.7811 179.282 41.991C179.071 42.2015 178.811 42.3068 178.5 42.3068ZM178.5 55C178.354 55 178.217 54.977 178.089 54.9309C177.961 54.8856 177.842 54.8081 177.732 54.6984L174.607 51.5731C174.388 51.3538 174.283 51.0932 174.292 50.7912C174.301 50.49 174.415 50.2298 174.634 50.0104C174.854 49.7911 175.124 49.6767 175.444 49.6672C175.763 49.6584 176.023 49.7728 176.225 50.0104L177.403 51.2441V47.7898C177.403 47.4791 177.509 47.2185 177.719 47.0079C177.929 46.7981 178.189 46.6932 178.5 46.6932C178.811 46.6932 179.071 46.7981 179.282 47.0079C179.492 47.2185 179.597 47.4791 179.597 47.7898V51.2441L180.803 50.0104C181.004 49.7911 181.26 49.6815 181.57 49.6815C181.881 49.6815 182.146 49.7911 182.366 50.0104C182.585 50.2298 182.695 50.4948 182.695 50.8055C182.695 51.1162 182.585 51.3812 182.366 51.6005L179.268 54.6984C179.158 54.8081 179.039 54.8856 178.911 54.9309C178.783 54.977 178.646 55 178.5 55ZM184.01 48.3655C183.791 48.1462 183.677 47.8764 183.667 47.5562C183.658 47.2368 183.773 46.9765 184.01 46.7755L185.244 45.5966H181.79C181.479 45.5966 181.219 45.4913 181.009 45.2808C180.798 45.071 180.693 44.8107 180.693 44.5C180.693 44.1893 180.798 43.9287 181.009 43.7181C181.219 43.5083 181.479 43.4034 181.79 43.4034H185.244L184.01 42.1971C183.791 41.9961 183.681 41.7402 183.681 41.4295C183.681 41.1188 183.791 40.8538 184.01 40.6345C184.23 40.4151 184.495 40.3055 184.805 40.3055C185.116 40.3055 185.381 40.4151 185.601 40.6345L188.698 43.7324C188.808 43.842 188.886 43.9608 188.932 44.0888C188.977 44.2167 189 44.3538 189 44.5C189 44.6462 188.977 44.7833 188.932 44.9112C188.886 45.0392 188.808 45.158 188.698 45.2676L185.573 48.3929C185.354 48.6123 185.094 48.7172 184.792 48.7077C184.49 48.6989 184.23 48.5849 184.01 48.3655ZM171.399 48.3655L168.302 45.2676C168.192 45.158 168.114 45.0392 168.069 44.9112C168.023 44.7833 168 44.6462 168 44.5C168 44.3538 168.023 44.2167 168.069 44.0888C168.114 43.9608 168.192 43.842 168.302 43.7324L171.427 40.607C171.628 40.406 171.879 40.3055 172.181 40.3055C172.483 40.3055 172.743 40.4151 172.962 40.6345C173.181 40.8538 173.287 41.1188 173.278 41.4295C173.268 41.7402 173.154 42.0052 172.935 42.2245L171.756 43.4034H175.21C175.521 43.4034 175.782 43.5083 175.992 43.7181C176.202 43.9287 176.307 44.1893 176.307 44.5C176.307 44.8107 176.202 45.071 175.992 45.2808C175.782 45.4913 175.521 45.5966 175.21 45.5966H171.756L172.99 46.8029C173.209 47.0039 173.319 47.2598 173.319 47.5705C173.319 47.8812 173.209 48.1462 172.99 48.3655C172.77 48.5849 172.505 48.6945 172.195 48.6945C171.884 48.6945 171.619 48.5849 171.399 48.3655Z" fill="#4A4A4A"/>
</g>
<defs>
<filter id="filter0_d_403_312" x="226" y="0" width="176.481" height="140.568" filterUnits="userSpaceOnUse" color-interpolation-filters="sRGB">
<feFlood flood-opacity="0" result="BackgroundImageFix"/>
<feColorMatrix in="SourceAlpha" type="matrix" values="0 0 0 0 0 0 0 0 0 0 0 0 0 0 0 0 0 0 127 0" result="hardAlpha"/>
<feOffset dy="4"/>
<feGaussianBlur stdDeviation="2"/>
<feComposite in2="hardAlpha" operator="out"/>
<feColorMatrix type="matrix" values="0 0 0 0 0.725 0 0 0 0 0.725 0 0 0 0 0.725 0 0 0 0.25 0"/>
<feBlend mode="normal" in2="BackgroundImageFix" result="effect1_dropShadow_403_312"/>
<feBlend mode="normal" in="SourceGraphic" in2="effect1_dropShadow_403_312" result="shape"/>
</filter>
<filter id="filter1_d_403_312" x="0.743942" y="25.4789" width="176.481" height="140.568" filterUnits="userSpaceOnUse" color-interpolation-filters="sRGB">
<feFlood flood-opacity="0" result="BackgroundImageFix"/>
<feColorMatrix in="SourceAlpha" type="matrix" values="0 0 0 0 0 0 0 0 0 0 0 0 0 0 0 0 0 0 127 0" result="hardAlpha"/>
<feOffset dy="4"/>
<feGaussianBlur stdDeviation="2"/>
<feComposite in2="hardAlpha" operator="out"/>
<feColorMatrix type="matrix" values="0 0 0 0 0.725 0 0 0 0 0.725 0 0 0 0 0.725 0 0 0 0.25 0"/>
<feBlend mode="normal" in2="BackgroundImageFix" result="effect1_dropShadow_403_312"/>
<feBlend mode="normal" in="SourceGraphic" in2="effect1_dropShadow_403_312" result="shape"/>
</filter>
<clipPath id="clip0_403_312">
<rect width="403" height="167" fill="white"/>
</clipPath>
</defs>
</svg>
