<svg width="174" height="160" viewBox="0 0 174 160" fill="none" xmlns="http://www.w3.org/2000/svg">
<g filter="url(#filter0_ddd_1667_2098)">
<rect x="10" y="9" width="139.487" height="139.487" rx="4" fill="white"/>
</g>
<g clip-path="url(#clip0_1667_2098)">
<path d="M133.359 131.269C130.351 131.269 127.91 133.71 127.91 136.718C127.91 139.726 130.351 142.167 133.359 142.167C136.367 142.167 138.808 139.726 138.808 136.718C138.808 133.71 136.367 131.269 133.359 131.269ZM132.814 141.039C130.662 140.772 129 138.941 129 136.718C129 136.38 129.043 136.059 129.114 135.743L131.724 138.352V138.897C131.724 139.497 132.215 139.987 132.814 139.987V141.039ZM136.574 139.655C136.432 139.213 136.029 138.897 135.538 138.897H134.993V137.263C134.993 136.963 134.748 136.718 134.449 136.718H131.179V135.628H132.269C132.569 135.628 132.814 135.383 132.814 135.083V133.994H133.904C134.503 133.994 134.993 133.503 134.993 132.904V132.68C136.59 133.329 137.718 134.893 137.718 136.718C137.718 137.851 137.282 138.881 136.574 139.655Z" fill="black" fill-opacity="0.87"/>
</g>
<path d="M93 103C93 100.791 94.7909 99 97 99H170C172.209 99 174 100.791 174 103V115C174 117.209 172.209 119 170 119H97C94.7909 119 93 117.209 93 115V103Z" fill="#616161" fill-opacity="0.9"/>
<path d="M104.647 104.891V112H103.432V104.891H104.647ZM106.879 104.891V105.867H101.22V104.891H106.879ZM110.023 110.94V108.421C110.023 108.232 109.989 108.069 109.921 107.933C109.853 107.796 109.748 107.69 109.608 107.615C109.472 107.54 109.299 107.503 109.091 107.503C108.899 107.503 108.733 107.535 108.593 107.601C108.453 107.666 108.344 107.754 108.266 107.864C108.188 107.975 108.148 108.1 108.148 108.24H106.977C106.977 108.032 107.027 107.83 107.128 107.635C107.229 107.439 107.375 107.265 107.567 107.112C107.759 106.959 107.989 106.839 108.256 106.751C108.523 106.663 108.822 106.619 109.154 106.619C109.551 106.619 109.903 106.686 110.209 106.819C110.518 106.953 110.761 107.155 110.937 107.425C111.116 107.692 111.205 108.027 111.205 108.431V110.779C111.205 111.02 111.221 111.237 111.254 111.429C111.29 111.618 111.34 111.782 111.405 111.922V112H110.199C110.144 111.873 110.1 111.712 110.067 111.517C110.038 111.318 110.023 111.126 110.023 110.94ZM110.194 108.787L110.204 109.515H109.359C109.141 109.515 108.949 109.536 108.783 109.578C108.617 109.617 108.479 109.676 108.368 109.754C108.257 109.832 108.174 109.926 108.119 110.037C108.064 110.148 108.036 110.273 108.036 110.413C108.036 110.553 108.069 110.682 108.134 110.799C108.199 110.913 108.293 111.002 108.417 111.067C108.544 111.132 108.697 111.165 108.876 111.165C109.117 111.165 109.327 111.116 109.506 111.019C109.688 110.918 109.831 110.796 109.936 110.652C110.04 110.506 110.095 110.368 110.102 110.237L110.482 110.76C110.443 110.893 110.377 111.036 110.282 111.189C110.188 111.342 110.064 111.489 109.911 111.629C109.761 111.766 109.581 111.878 109.369 111.966C109.161 112.054 108.92 112.098 108.646 112.098C108.301 112.098 107.994 112.029 107.724 111.893C107.453 111.753 107.242 111.565 107.089 111.331C106.936 111.093 106.859 110.825 106.859 110.525C106.859 110.245 106.911 109.998 107.016 109.783C107.123 109.565 107.279 109.383 107.484 109.236C107.693 109.09 107.947 108.979 108.246 108.904C108.546 108.826 108.887 108.787 109.271 108.787H110.194ZM112.44 104.5H113.617V110.872L113.505 112H112.44V104.5ZM117.064 109.31V109.412C117.064 109.803 117.021 110.162 116.933 110.491C116.848 110.817 116.718 111.1 116.542 111.341C116.369 111.582 116.155 111.769 115.897 111.902C115.644 112.033 115.349 112.098 115.014 112.098C114.685 112.098 114.398 112.036 114.154 111.912C113.91 111.788 113.705 111.613 113.539 111.385C113.376 111.157 113.244 110.885 113.144 110.569C113.043 110.254 112.971 109.905 112.929 109.524V109.197C112.971 108.813 113.043 108.465 113.144 108.152C113.244 107.837 113.376 107.565 113.539 107.337C113.705 107.106 113.909 106.928 114.149 106.805C114.394 106.681 114.678 106.619 115.004 106.619C115.342 106.619 115.64 106.684 115.897 106.814C116.158 106.945 116.374 107.13 116.547 107.371C116.719 107.609 116.848 107.892 116.933 108.221C117.021 108.549 117.064 108.912 117.064 109.31ZM115.888 109.412V109.31C115.888 109.072 115.868 108.849 115.829 108.641C115.79 108.429 115.725 108.243 115.634 108.084C115.546 107.924 115.425 107.799 115.272 107.708C115.123 107.614 114.936 107.566 114.711 107.566C114.503 107.566 114.324 107.602 114.174 107.674C114.024 107.745 113.899 107.843 113.798 107.967C113.697 108.09 113.617 108.234 113.559 108.396C113.503 108.559 113.466 108.735 113.446 108.924V109.808C113.476 110.052 113.537 110.276 113.632 110.481C113.729 110.683 113.866 110.846 114.042 110.97C114.218 111.09 114.444 111.15 114.721 111.15C114.939 111.15 115.123 111.106 115.272 111.019C115.422 110.931 115.541 110.809 115.629 110.652C115.72 110.493 115.785 110.307 115.824 110.096C115.867 109.884 115.888 109.656 115.888 109.412ZM119.32 104.5V112H118.139V104.5H119.32ZM122.938 112.098C122.548 112.098 122.195 112.034 121.879 111.907C121.566 111.777 121.299 111.596 121.078 111.365C120.86 111.134 120.692 110.862 120.575 110.55C120.458 110.237 120.399 109.9 120.399 109.539V109.344C120.399 108.93 120.46 108.556 120.58 108.221C120.701 107.885 120.868 107.599 121.083 107.361C121.298 107.12 121.552 106.937 121.845 106.81C122.138 106.683 122.455 106.619 122.797 106.619C123.174 106.619 123.505 106.683 123.788 106.81C124.071 106.937 124.306 107.116 124.491 107.347C124.68 107.575 124.82 107.846 124.911 108.162C125.006 108.478 125.053 108.826 125.053 109.207V109.71H120.971V108.865H123.891V108.772C123.884 108.561 123.842 108.362 123.764 108.177C123.689 107.991 123.573 107.841 123.417 107.728C123.261 107.614 123.052 107.557 122.792 107.557C122.597 107.557 122.423 107.599 122.27 107.684C122.12 107.765 121.994 107.884 121.894 108.04C121.793 108.196 121.715 108.385 121.659 108.606C121.607 108.825 121.581 109.07 121.581 109.344V109.539C121.581 109.77 121.612 109.985 121.674 110.184C121.739 110.379 121.833 110.55 121.957 110.696C122.081 110.843 122.23 110.958 122.406 111.043C122.582 111.124 122.782 111.165 123.007 111.165C123.29 111.165 123.542 111.108 123.764 110.994C123.985 110.88 124.177 110.719 124.34 110.511L124.96 111.111C124.846 111.277 124.698 111.437 124.516 111.59C124.333 111.74 124.11 111.862 123.847 111.956C123.586 112.05 123.284 112.098 122.938 112.098ZM128.949 110.94V108.421C128.949 108.232 128.915 108.069 128.847 107.933C128.778 107.796 128.674 107.69 128.534 107.615C128.397 107.54 128.225 107.503 128.017 107.503C127.825 107.503 127.659 107.535 127.519 107.601C127.379 107.666 127.27 107.754 127.191 107.864C127.113 107.975 127.074 108.1 127.074 108.24H125.902C125.902 108.032 125.953 107.83 126.054 107.635C126.155 107.439 126.301 107.265 126.493 107.112C126.685 106.959 126.915 106.839 127.182 106.751C127.449 106.663 127.748 106.619 128.08 106.619C128.477 106.619 128.829 106.686 129.135 106.819C129.444 106.953 129.687 107.155 129.862 107.425C130.041 107.692 130.131 108.027 130.131 108.431V110.779C130.131 111.02 130.147 111.237 130.18 111.429C130.215 111.618 130.266 111.782 130.331 111.922V112H129.125C129.07 111.873 129.026 111.712 128.993 111.517C128.964 111.318 128.949 111.126 128.949 110.94ZM129.12 108.787L129.13 109.515H128.285C128.067 109.515 127.875 109.536 127.709 109.578C127.543 109.617 127.405 109.676 127.294 109.754C127.183 109.832 127.1 109.926 127.045 110.037C126.99 110.148 126.962 110.273 126.962 110.413C126.962 110.553 126.994 110.682 127.06 110.799C127.125 110.913 127.219 111.002 127.343 111.067C127.47 111.132 127.623 111.165 127.802 111.165C128.043 111.165 128.253 111.116 128.432 111.019C128.614 110.918 128.757 110.796 128.861 110.652C128.965 110.506 129.021 110.368 129.027 110.237L129.408 110.76C129.369 110.893 129.302 111.036 129.208 111.189C129.114 111.342 128.99 111.489 128.837 111.629C128.687 111.766 128.507 111.878 128.295 111.966C128.087 112.054 127.846 112.098 127.572 112.098C127.227 112.098 126.92 112.029 126.649 111.893C126.379 111.753 126.168 111.565 126.015 111.331C125.862 111.093 125.785 110.825 125.785 110.525C125.785 110.245 125.837 109.998 125.941 109.783C126.049 109.565 126.205 109.383 126.41 109.236C126.618 109.09 126.872 108.979 127.172 108.904C127.471 108.826 127.813 108.787 128.197 108.787H129.12ZM134.54 110.755V106.717H135.722V112H134.608L134.54 110.755ZM134.706 109.656L135.102 109.646C135.102 110.001 135.062 110.328 134.984 110.628C134.906 110.924 134.786 111.183 134.623 111.404C134.46 111.622 134.252 111.793 133.998 111.917C133.744 112.037 133.44 112.098 133.085 112.098C132.828 112.098 132.592 112.06 132.377 111.985C132.162 111.91 131.977 111.795 131.82 111.639C131.667 111.482 131.549 111.279 131.464 111.028C131.379 110.778 131.337 110.478 131.337 110.13V106.717H132.514V110.14C132.514 110.332 132.536 110.493 132.582 110.623C132.628 110.75 132.689 110.853 132.768 110.931C132.846 111.009 132.937 111.064 133.041 111.097C133.145 111.129 133.256 111.146 133.373 111.146C133.708 111.146 133.972 111.08 134.164 110.95C134.359 110.817 134.498 110.638 134.579 110.413C134.664 110.188 134.706 109.936 134.706 109.656ZM140.6 107.732V114.031H139.423V106.717H140.507L140.6 107.732ZM144.042 109.31V109.412C144.042 109.796 143.996 110.153 143.905 110.481C143.817 110.807 143.686 111.092 143.51 111.336C143.337 111.577 143.124 111.764 142.87 111.897C142.616 112.031 142.323 112.098 141.991 112.098C141.662 112.098 141.374 112.037 141.127 111.917C140.883 111.793 140.676 111.619 140.507 111.395C140.338 111.17 140.201 110.906 140.097 110.604C139.996 110.298 139.924 109.962 139.882 109.598V109.202C139.924 108.815 139.996 108.463 140.097 108.147C140.201 107.832 140.338 107.56 140.507 107.332C140.676 107.104 140.883 106.928 141.127 106.805C141.371 106.681 141.656 106.619 141.981 106.619C142.313 106.619 142.608 106.684 142.865 106.814C143.122 106.941 143.339 107.124 143.515 107.361C143.69 107.596 143.822 107.879 143.91 108.211C143.998 108.54 144.042 108.906 144.042 109.31ZM142.865 109.412V109.31C142.865 109.065 142.842 108.839 142.797 108.631C142.751 108.419 142.68 108.234 142.582 108.074C142.484 107.915 142.359 107.791 142.206 107.703C142.056 107.612 141.876 107.566 141.664 107.566C141.456 107.566 141.277 107.602 141.127 107.674C140.977 107.742 140.852 107.838 140.751 107.962C140.65 108.086 140.572 108.23 140.517 108.396C140.461 108.559 140.422 108.737 140.399 108.929V109.876C140.438 110.11 140.505 110.325 140.6 110.521C140.694 110.716 140.827 110.872 141 110.989C141.176 111.103 141.4 111.16 141.674 111.16C141.885 111.16 142.066 111.115 142.216 111.023C142.366 110.932 142.488 110.807 142.582 110.647C142.68 110.485 142.751 110.298 142.797 110.086C142.842 109.874 142.865 109.65 142.865 109.412ZM148.222 110.755V106.717H149.403V112H148.29L148.222 110.755ZM148.388 109.656L148.783 109.646C148.783 110.001 148.744 110.328 148.666 110.628C148.588 110.924 148.467 111.183 148.305 111.404C148.142 111.622 147.934 111.793 147.68 111.917C147.426 112.037 147.121 112.098 146.767 112.098C146.509 112.098 146.273 112.06 146.059 111.985C145.844 111.91 145.658 111.795 145.502 111.639C145.349 111.482 145.23 111.279 145.146 111.028C145.061 110.778 145.019 110.478 145.019 110.13V106.717H146.195V110.14C146.195 110.332 146.218 110.493 146.264 110.623C146.309 110.75 146.371 110.853 146.449 110.931C146.527 111.009 146.618 111.064 146.723 111.097C146.827 111.129 146.938 111.146 147.055 111.146C147.39 111.146 147.654 111.08 147.846 110.95C148.041 110.817 148.179 110.638 148.261 110.413C148.345 110.188 148.388 109.936 148.388 109.656ZM150.614 104.5H151.791V110.872L151.679 112H150.614V104.5ZM155.238 109.31V109.412C155.238 109.803 155.194 110.162 155.106 110.491C155.022 110.817 154.892 111.1 154.716 111.341C154.543 111.582 154.328 111.769 154.071 111.902C153.817 112.033 153.523 112.098 153.188 112.098C152.859 112.098 152.572 112.036 152.328 111.912C152.084 111.788 151.879 111.613 151.713 111.385C151.55 111.157 151.418 110.885 151.317 110.569C151.216 110.254 151.145 109.905 151.103 109.524V109.197C151.145 108.813 151.216 108.465 151.317 108.152C151.418 107.837 151.55 107.565 151.713 107.337C151.879 107.106 152.082 106.928 152.323 106.805C152.567 106.681 152.852 106.619 153.178 106.619C153.516 106.619 153.814 106.684 154.071 106.814C154.332 106.945 154.548 107.13 154.721 107.371C154.893 107.609 155.022 107.892 155.106 108.221C155.194 108.549 155.238 108.912 155.238 109.31ZM154.062 109.412V109.31C154.062 109.072 154.042 108.849 154.003 108.641C153.964 108.429 153.899 108.243 153.808 108.084C153.72 107.924 153.599 107.799 153.446 107.708C153.297 107.614 153.109 107.566 152.885 107.566C152.676 107.566 152.497 107.602 152.348 107.674C152.198 107.745 152.073 107.843 151.972 107.967C151.871 108.09 151.791 108.234 151.732 108.396C151.677 108.559 151.64 108.735 151.62 108.924V109.808C151.649 110.052 151.711 110.276 151.806 110.481C151.903 110.683 152.04 110.846 152.216 110.97C152.392 111.09 152.618 111.15 152.895 111.15C153.113 111.15 153.297 111.106 153.446 111.019C153.596 110.931 153.715 110.809 153.803 110.652C153.894 110.493 153.959 110.307 153.998 110.096C154.04 109.884 154.062 109.656 154.062 109.412ZM157.494 104.5V112H156.312V104.5H157.494ZM160.043 106.717V112H158.861V106.717H160.043ZM158.783 105.33C158.783 105.151 158.842 105.003 158.959 104.886C159.079 104.765 159.245 104.705 159.457 104.705C159.665 104.705 159.83 104.765 159.95 104.886C160.071 105.003 160.131 105.151 160.131 105.33C160.131 105.506 160.071 105.652 159.95 105.77C159.83 105.887 159.665 105.945 159.457 105.945C159.245 105.945 159.079 105.887 158.959 105.77C158.842 105.652 158.783 105.506 158.783 105.33ZM163.49 111.16C163.682 111.16 163.855 111.123 164.008 111.048C164.164 110.97 164.289 110.862 164.384 110.726C164.481 110.589 164.535 110.431 164.545 110.252H165.653C165.647 110.594 165.546 110.905 165.351 111.185C165.155 111.465 164.896 111.688 164.574 111.854C164.252 112.016 163.896 112.098 163.505 112.098C163.101 112.098 162.75 112.029 162.45 111.893C162.151 111.753 161.902 111.561 161.703 111.316C161.505 111.072 161.355 110.791 161.254 110.472C161.156 110.153 161.107 109.811 161.107 109.446V109.275C161.107 108.911 161.156 108.569 161.254 108.25C161.355 107.928 161.505 107.645 161.703 107.4C161.902 107.156 162.151 106.966 162.45 106.829C162.75 106.689 163.1 106.619 163.5 106.619C163.923 106.619 164.294 106.704 164.613 106.873C164.932 107.039 165.183 107.272 165.365 107.571C165.551 107.868 165.647 108.213 165.653 108.606H164.545C164.535 108.411 164.486 108.235 164.398 108.079C164.314 107.92 164.193 107.793 164.037 107.698C163.884 107.604 163.7 107.557 163.485 107.557C163.248 107.557 163.051 107.605 162.895 107.703C162.738 107.798 162.616 107.928 162.528 108.094C162.44 108.257 162.377 108.44 162.338 108.646C162.302 108.847 162.284 109.057 162.284 109.275V109.446C162.284 109.664 162.302 109.876 162.338 110.081C162.374 110.286 162.436 110.47 162.523 110.633C162.615 110.792 162.738 110.921 162.895 111.019C163.051 111.113 163.249 111.16 163.49 111.16Z" fill="white"/>
<path d="M133.5 125L127.5 119L139.5 119L133.5 125Z" fill="#616161" fill-opacity="0.9"/>
<path d="M142.391 18.6501V90.3025C142.391 90.5394 142.344 90.7739 142.253 90.9927C142.163 91.2115 142.03 91.4104 141.862 91.5779C141.695 91.7454 141.496 91.8783 141.276 91.969C141.057 92.0597 140.823 92.1064 140.585 92.1065H18.7811C18.6944 92.1072 18.6077 92.1004 18.5222 92.0864C18.0925 92.0246 17.6995 91.8103 17.4153 91.4826C17.1311 91.155 16.9746 90.736 16.9746 90.3025V18.6501C16.9745 18.4133 17.0212 18.1788 17.1118 17.96C17.2025 17.7412 17.3355 17.5423 17.5031 17.3748C17.6707 17.2073 17.8698 17.0744 18.0888 16.9837C18.3079 16.893 18.5427 16.8463 18.7798 16.8462H140.584C140.821 16.8461 141.056 16.8927 141.275 16.9832C141.494 17.0738 141.694 17.2065 141.861 17.374C142.029 17.5414 142.162 17.7401 142.253 17.9589C142.344 18.1776 142.391 18.4121 142.391 18.6489V18.6501Z" fill="#E6E6E6"/>
<path d="M47.6773 59.4494C56.43 59.4494 63.5255 52.3637 63.5255 43.6231C63.5255 34.8825 56.43 27.7969 47.6773 27.7969C38.9246 27.7969 31.8291 34.8825 31.8291 43.6231C31.8291 52.3637 38.9246 59.4494 47.6773 59.4494Z" fill="#2A9CC8"/>
<path d="M97.3758 92.3937H19.6294C19.532 92.395 19.4348 92.3873 19.3389 92.3708L56.1094 28.7671C56.3338 28.371 56.6595 28.0415 57.0532 27.8122C57.4468 27.583 57.8944 27.4622 58.3502 27.4622C58.8059 27.4622 59.2535 27.583 59.6472 27.8122C60.0409 28.0415 60.3666 28.371 60.591 28.7671L85.2686 71.4501L86.4508 73.4925L97.3758 92.3937Z" fill="#E5F5FF"/>
<path opacity="0.2" d="M97.3756 92.3939H70.8311L83.8616 73.4924L84.7996 72.1312L85.2686 71.4503L86.4511 73.4924L97.3756 92.3939Z" fill="#2A9CC8"/>
<path d="M140.664 92.3937H73.4199L86.4505 73.4925L87.3883 72.1309L104.368 47.4989C105.482 45.8845 108.16 45.784 109.468 47.1944C109.556 47.2906 109.638 47.3923 109.713 47.4989L140.664 92.3937Z" fill="#AADAED"/>
<defs>
<filter id="filter0_ddd_1667_2098" x="0" y="0" width="159.487" height="159.487" filterUnits="userSpaceOnUse" color-interpolation-filters="sRGB">
<feFlood flood-opacity="0" result="BackgroundImageFix"/>
<feColorMatrix in="SourceAlpha" type="matrix" values="0 0 0 0 0 0 0 0 0 0 0 0 0 0 0 0 0 0 127 0" result="hardAlpha"/>
<feMorphology radius="1" operator="erode" in="SourceAlpha" result="effect1_dropShadow_1667_2098"/>
<feOffset dy="2"/>
<feGaussianBlur stdDeviation="2"/>
<feComposite in2="hardAlpha" operator="out"/>
<feColorMatrix type="matrix" values="0 0 0 0 0 0 0 0 0 0 0 0 0 0 0 0 0 0 0.2 0"/>
<feBlend mode="normal" in2="BackgroundImageFix" result="effect1_dropShadow_1667_2098"/>
<feColorMatrix in="SourceAlpha" type="matrix" values="0 0 0 0 0 0 0 0 0 0 0 0 0 0 0 0 0 0 127 0" result="hardAlpha"/>
<feOffset dy="4"/>
<feGaussianBlur stdDeviation="2.5"/>
<feComposite in2="hardAlpha" operator="out"/>
<feColorMatrix type="matrix" values="0 0 0 0 0 0 0 0 0 0 0 0 0 0 0 0 0 0 0.14 0"/>
<feBlend mode="normal" in2="effect1_dropShadow_1667_2098" result="effect2_dropShadow_1667_2098"/>
<feColorMatrix in="SourceAlpha" type="matrix" values="0 0 0 0 0 0 0 0 0 0 0 0 0 0 0 0 0 0 127 0" result="hardAlpha"/>
<feOffset dy="1"/>
<feGaussianBlur stdDeviation="5"/>
<feComposite in2="hardAlpha" operator="out"/>
<feColorMatrix type="matrix" values="0 0 0 0 0 0 0 0 0 0 0 0 0 0 0 0 0 0 0.12 0"/>
<feBlend mode="normal" in2="effect2_dropShadow_1667_2098" result="effect3_dropShadow_1667_2098"/>
<feBlend mode="normal" in="SourceGraphic" in2="effect3_dropShadow_1667_2098" result="shape"/>
</filter>
<clipPath id="clip0_1667_2098">
<rect width="13.0769" height="13.0769" fill="white" transform="translate(126.82 130.179)"/>
</clipPath>
</defs>
</svg>
