<?xml version="1.0" encoding="UTF-8" standalone="no"?>
<svg
        xmlns:dc="http://purl.org/dc/elements/1.1/"
        xmlns:cc="http://creativecommons.org/ns#"
        xmlns:rdf="http://www.w3.org/1999/02/22-rdf-syntax-ns#"
        xmlns:sodipodi="http://sodipodi.sourceforge.net/DTD/sodipodi-0.dtd"
        xmlns:inkscape="http://www.inkscape.org/namespaces/inkscape"
        xmlns="http://www.w3.org/2000/svg"
        sodipodi:docname="magneto.svg"
        inkscape:version="1.0 (4035a4fb49, 2020-05-01)"
        id="svg4"
        version="1.1"
        viewBox="0 0 38.109746 23.818588"
        height="238.18588"
        width="381.09746">
  <metadata
          id="metadata10">
    <rdf:RDF>
      <cc:Work
              rdf:about="">
        <dc:format>image/svg+xml</dc:format>
        <dc:type
                rdf:resource="http://purl.org/dc/dcmitype/StillImage" />
        <dc:title></dc:title>
      </cc:Work>
    </rdf:RDF>
  </metadata>
  <defs
          id="defs8" />
  <sodipodi:namedview
          inkscape:current-layer="svg4"
          inkscape:window-maximized="1"
          inkscape:window-y="-9"
          inkscape:window-x="-9"
          inkscape:cy="622.67569"
          inkscape:cx="1164.4898"
          inkscape:zoom="3.0625"
          showgrid="false"
          id="namedview6"
          inkscape:window-height="1001"
          inkscape:window-width="1920"
          inkscape:pageshadow="2"
          inkscape:pageopacity="0"
          guidetolerance="10"
          gridtolerance="10"
          objecttolerance="10"
          borderopacity="1"
          bordercolor="#666666"
          pagecolor="#ffffff" />
  <path
          style="fill:#ecbe30;fill-opacity:1;stroke-width:1.19093"
          id="path2"
          d="M 21.436732,17.86394 V 10.718363 A 10.718367,10.718367 0 0 0 10.718363,0 10.718367,10.718367 0 0 0 0,10.718363 V 17.86394 H 4.7637206 V 10.718363 A 5.9546481,5.9546481 0 0 1 10.718363,4.7637137 5.9546481,5.9546481 0 0 1 16.673012,10.718363 V 17.86394 M 4.7637206,20.245797 H 0 V 23.818589 H 4.7637206 M 21.436732,20.245797 h -4.76372 v 3.572792 h 4.76372" />
  <path
          d="M 38.109746,17.86394 V 10.718363 A 10.718367,10.718367 0 0 0 27.391374,0 10.718367,10.718367 0 0 0 16.673012,10.718363 V 17.86394 h 4.76372 V 10.718363 A 5.9546481,5.9546481 0 0 1 27.391374,4.7637137 5.9546481,5.9546481 0 0 1 33.346023,10.718363 V 17.86394 M 21.436732,20.245797 h -4.76372 v 3.572792 h 4.76372 M 38.109746,20.245797 H 33.346023 v 3.572792 h 4.763723"
          id="path2-6"
          style="fill:#ecbe30;fill-opacity:1;stroke-width:1.19093" />
</svg>