<svg xmlns="http://www.w3.org/2000/svg"
     xmlns:dc="http://purl.org/dc/elements/1.1/"
     xmlns:cc="http://creativecommons.org/ns#"
     xmlns:rdf="http://www.w3.org/1999/02/22-rdf-syntax-ns#"
     version="1.1"
     viewBox="0 0 38.109746 33.345988"
     height="333.45988"
     width="381.09746">
  <metadata id="metadata10">
    <rdf:RDF>
      <cc:Work rdf:about="">
        <dc:format>image/svg+xml</dc:format>
        <dc:type rdf:resource="http://purl.org/dc/dcmitype/StillImage" />
        <dc:title></dc:title>
      </cc:Work>
    </rdf:RDF>
  </metadata>
  <defs id="defs8" />
  <!-- The original content positioned with 20% space above (4.76372 units) -->
  <g transform="translate(0,4.76372)">
    <path
            style="fill:#ecbe30;fill-opacity:1;stroke-width:1.19093"
            id="path2"
            d="M 21.436732,17.86394 V 10.718363 A 10.718367,10.718367 0 0 0 10.718363,0 10.718367,10.718367 0 0 0 0,10.718363 V 17.86394 H 4.7637206 V 10.718363 A 5.9546481,5.9546481 0 0 1 10.718363,4.7637137 5.9546481,5.9546481 0 0 1 16.673012,10.718363 V 17.86394 M 4.7637206,20.245797 H 0 V 23.818589 H 4.7637206 M 21.436732,20.245797 h -4.76372 v 3.572792 h 4.76372" />
    <path
            d="M 38.109746,17.86394 V 10.718363 A 10.718367,10.718367 0 0 0 27.391374,0 10.718367,10.718367 0 0 0 16.673012,10.718363 V 17.86394 h 4.76372 V 10.718363 A 5.9546481,5.9546481 0 0 1 27.391374,4.7637137 5.9546481,5.9546481 0 0 1 33.346023,10.718363 V 17.86394 M 21.436732,20.245797 h -4.76372 v 3.572792 h 4.76372 M 38.109746,20.245797 H 33.346023 v 3.572792 h 4.763723"
            id="path2-6"
            style="fill:#ecbe30;fill-opacity:1;stroke-width:1.19093" />
  </g>
  <!-- The viewBox is now extended to have 20% space above and 20% space below -->
</svg>